<svg xmlns="http://www.w3.org/2000/svg" viewBox="0 0 808.031 195">
  <path fill="#005eb8" d="M70 55V0h125v195H70v-55h70V55Z"/>
  <path fill="#ffe800" d="M160 90h15v15h-15z"/>
  <path fill="#005eb8" d="M70 70v55h55.132L125 70h-20v35H90V70z"/>
  <path fill="#d83933" d="M0 70h55v55H0v-20h35V90H0Zm0-35h55v20H0Zm0 105h55v20H0Zm0 35h55v20H0ZM0 0h55v20H0Z"/>
  <path fill="#005eb8" d="M293.392 127.506v48.932q0 3.939.239 8.116.358 4.058 1.79 7.4 1.552 3.341 4.774 5.49 3.222 2.028 9.07 2.028 5.848 0 8.951-2.029 3.223-2.148 4.774-5.49 1.552-3.341 1.79-7.399.358-4.177.358-8.116v-48.932h23.273v52.155q0 21.005-9.667 30.672Q329.196 220 309.265 220q-19.93 0-29.598-9.667Q270 200.666 270 179.66v-52.155Zm123.285 23.034q-3.82-3.103-7.638-4.535-3.82-1.551-7.4-1.551-4.535 0-7.4 2.148-2.864 2.148-2.864 5.609 0 2.387 1.433 3.939 1.432 1.551 3.7 2.744 2.386 1.075 5.25 1.91 2.984.835 5.849 1.79 11.457 3.82 16.708 10.264 5.37 6.325 5.37 16.59 0 6.921-2.386 12.53-2.268 5.61-6.803 9.668-4.416 3.938-10.98 6.086-6.445 2.268-14.68 2.268-17.066 0-31.626-10.144l10.025-18.857q5.251 4.654 10.383 6.922 5.132 2.267 10.144 2.267 5.729 0 8.474-2.625 2.864-2.626 2.864-5.968 0-2.028-.716-3.46-.716-1.552-2.387-2.746-1.67-1.312-4.416-2.386-2.625-1.075-6.444-2.387-4.535-1.433-8.951-3.103-4.297-1.79-7.758-4.655-3.341-2.864-5.49-7.16-2.029-4.417-2.029-11.1t2.149-12.054q2.267-5.49 6.206-9.309 4.057-3.939 9.786-6.087Q390.898 125 398.06 125q6.683 0 13.963 1.91 7.28 1.79 13.964 5.37zM270 113.48V26.686h18.213q13.098 0 20.687 2.586 8.15 2.53 14.784 8.6 13.434 12.255 13.434 32.21 0 20.013-13.997 32.38-7.026 6.183-14.727 8.6-7.196 2.418-20.406 2.418zm13.098-12.311H289q8.826 0 14.672-1.855 5.846-1.968 10.568-6.24 9.668-8.825 9.668-22.991 0-14.278-9.556-23.16-8.6-7.926-25.352-7.926h-5.902zm83.589-74.483v86.794h-13.098V26.686Zm69.929 12.93L425.99 45.91q-2.979-5.171-5.677-6.745-2.81-1.8-7.252-1.8-5.452 0-9.05 3.093-3.597 3.035-3.597 7.645 0 6.352 9.443 10.23l8.657 3.542q10.568 4.272 15.459 10.455 4.89 6.128 4.89 15.066 0 11.973-7.982 19.787-8.038 7.87-19.956 7.87-11.298 0-18.662-6.69-7.252-6.69-9.05-18.831l13.266-2.923q.899 7.645 3.148 10.568 4.047 5.621 11.804 5.621 6.128 0 10.175-4.104 4.047-4.103 4.047-10.399 0-2.53-.73-4.61-.675-2.136-2.193-3.878-1.461-1.799-3.822-3.317-2.361-1.574-5.622-2.979l-8.375-3.485q-17.82-7.533-17.82-22.036 0-9.78 7.476-16.358Q402.045 25 413.175 25q15.009 0 23.44 14.615zm82.184-8.264v15.515q-11.356-9.5-23.498-9.5-13.378 0-22.541 9.612-9.22 9.557-9.22 23.385 0 13.66 9.22 23.047 9.219 9.388 22.598 9.388 6.914 0 11.748-2.248 2.698-1.125 5.565-3.036 2.923-1.911 6.128-4.61v15.796q-11.243 6.353-23.61 6.353-18.607 0-31.76-12.986-13.098-13.097-13.098-31.592 0-16.582 10.961-29.568Q474.785 25 496.202 25q11.692 0 22.598 6.352zm11.636 38.337q0-18.325 13.435-31.479 13.378-13.154 32.153-13.154 18.55 0 31.817 13.267 13.323 13.266 13.323 31.872 0 18.72-13.38 31.76-13.434 13.099-32.434 13.099-16.808 0-30.187-11.637-14.727-12.872-14.727-33.728zm13.21.169q0 14.39 9.668 23.666 9.613 9.275 22.205 9.275 13.66 0 23.047-9.444 9.388-9.556 9.388-23.272 0-13.885-9.276-23.273-9.219-9.443-22.822-9.443-13.548 0-22.879 9.443-9.331 9.332-9.331 23.048zm94.55-43.172L662.2 86.834l24.34-60.148h14.335L661.918 120l-38.056-93.314Zm121.364 12.31h-34.795v20.856h33.784v12.31h-33.784v29.007h34.795v12.31h-47.893V26.686h47.893zm46.601 37.495 26.87 36.988h-16.02l-24.79-35.526h-2.362v35.526h-13.097V26.686h15.346q17.201 0 24.846 6.465 8.432 7.195 8.432 19 0 9.219-5.284 15.852-5.284 6.633-13.94 8.488zm-16.302-9.95h4.16q18.607 0 18.607-14.222 0-13.322-18.1-13.322h-4.667z" aria-label="DISCOVER-US" transform="translate(-25 -25)"/>
</svg>
