<?xml version="1.0" encoding="utf-8"?>
<!-- Generator: Adobe Illustrator 25.3.1, SVG Export Plug-In . SVG Version: 6.00 Build 0)  -->
<svg version="1.1" xmlns="http://www.w3.org/2000/svg" xmlns:xlink="http://www.w3.org/1999/xlink" x="0px" y="0px"
	 viewBox="0 0 328.4 170.9" style="enable-background:new 0 0 328.4 170.9;" xml:space="preserve">
<style type="text/css">
	.st0{display:none;}
	.st1{display:inline;stroke:#000000;stroke-miterlimit:10;}
	.st2{display:inline;fill:#CFCFCF;}
	.st3{display:inline;fill:#FFFFFF;}
	.st4{display:inline;fill:#464646;}
	.st5{display:inline;fill:#4A4A4A;}
	.st6{display:inline;fill:#C8C8C8;}
	.st7{fill:#CE0E2D;}
	.st8{fill:#FFCD00;}
	.st9{fill:#FFFFFF;}
	.st10{display:inline;fill:#575756;}
</style>
<g id="Capa_2_1_" class="st0">
	<rect x="-0.2" class="st1" width="610" height="171.2"/>
	<polygon class="st2" points="25,125.3 36.3,125.3 38.7,116.6 43.8,125.3 55.8,125.3 47.1,131 52.2,139.9 41.7,134.6 30.7,139.9 
		34.5,131.3 	"/>
	<polygon class="st2" points="59,96.8 69.6,96.8 71.8,89 76.6,96.8 87.7,96.8 79.6,101.9 85.9,110 74.6,105.2 65.9,110 67.9,102.2 	
		"/>
	<polygon class="st2" points="64.8,64.3 74.4,64.3 76.4,57.7 80.7,64.3 90.7,64.3 83.4,68.7 89.1,75.6 78.9,71.4 71,75.6 72.9,68.9 
			"/>
	<polygon class="st2" points="48.8,38.1 57.1,38.1 58.8,32.9 62.5,38.1 71.3,38.1 64.9,41.6 69.9,47 61,43.7 54.2,47 55.8,41.8 	"/>
	<path class="st3" d="M117.6,72.2l-0.8,3.7h-10.9l-0.9,4.3h10.1l-0.7,3.4h-10.1l-1,4.9h11.1l-0.8,3.7H98l4.2-20.1H117.6z"/>
	<path class="st3" d="M121.5,87.4c0.2,0.5,0.5,0.8,0.9,1.1c0.4,0.3,0.9,0.5,1.4,0.6c0.6,0.1,1.2,0.2,1.8,0.2c0.5,0,0.9-0.1,1.3-0.2
		c0.4-0.1,0.8-0.3,1.2-0.5c0.4-0.2,0.7-0.5,0.9-0.9c0.2-0.4,0.4-0.8,0.4-1.3c0-0.4-0.1-0.9-0.4-1.2c-0.3-0.3-0.7-0.6-1.2-0.8
		c-0.5-0.2-1.1-0.4-1.6-0.6l-1.8-0.5c-0.6-0.2-1.3-0.4-1.9-0.7c-0.6-0.3-1.1-0.6-1.6-1c-0.5-0.4-0.9-0.9-1.2-1.5
		c-0.3-0.7-0.5-1.4-0.4-2.2c0-1,0.2-2,0.7-2.9c0.5-0.8,1.1-1.4,1.8-1.9c0.8-0.5,1.6-0.9,2.6-1.2c0.9-0.2,1.9-0.4,2.9-0.4
		c1,0,2,0.1,2.9,0.4c0.9,0.2,1.7,0.6,2.4,1.1c0.7,0.5,1.3,1.2,1.6,2c0.4,0.9,0.6,2,0.6,3h-4.2c0-0.5,0-1-0.2-1.4
		c-0.2-0.4-0.4-0.7-0.8-0.9c-0.4-0.2-0.7-0.4-1.2-0.5c-0.5-0.1-1-0.2-1.4-0.2c-0.4,0-0.8,0-1.2,0.1c-0.4,0.1-0.8,0.2-1.1,0.4
		c-0.3,0.2-0.6,0.5-0.8,0.8c-0.2,0.4-0.3,0.8-0.3,1.2c0,0.5,0.2,0.9,0.6,1.2c0.4,0.3,0.8,0.6,1.3,0.8c0.5,0.2,1,0.4,1.6,0.5l1.3,0.3
		c0.7,0.2,1.5,0.4,2.2,0.7c0.6,0.2,1.2,0.6,1.7,1c0.5,0.4,0.9,1,1.1,1.6c0.6,1.8,0.5,3.7-0.4,5.3c-0.4,0.8-1.1,1.6-1.9,2.1
		c-0.8,0.5-1.7,0.9-2.6,1.1c-0.9,0.2-1.9,0.3-2.9,0.3c-2.8,0-4.9-0.6-6.3-1.7c-1.4-1.1-2.1-3-2.1-5.4h4.2
		C121.2,86.2,121.3,86.8,121.5,87.4z"/>
	<path class="st3" d="M147.3,72.2c0.9,0,1.9,0.1,2.8,0.3c0.8,0.2,1.5,0.5,2.2,1c0.6,0.5,1.1,1.1,1.4,1.8c0.4,0.9,0.6,1.8,0.5,2.8
		c0.1,2-0.8,3.9-2.4,5.2c-0.7,0.6-1.6,1.1-2.5,1.4c-1,0.3-2,0.5-3,0.5H141l-1.5,7.2h-4.4l4.2-20.1L147.3,72.2z M146.2,81.6
		c1,0.1,1.9-0.2,2.7-0.8c0.7-0.7,1.1-1.7,1-2.7c0-0.4-0.1-0.9-0.3-1.2c-0.2-0.3-0.4-0.6-0.7-0.8c-0.3-0.2-0.6-0.3-1-0.4
		c-0.4-0.1-0.8-0.1-1.1-0.1H143l-1.2,6L146.2,81.6z"/>
	<path class="st3" d="M166.1,72.2l3.4,20.1h-4.4l-0.6-4.5h-7.5l-2.5,4.5h-4.6l11.9-20.1H166.1z M164,84.5l-1-8l0,0l-4.3,8H164z"/>
	<path class="st3" d="M179.9,72.2l5.5,14.3h0.1l2.9-14.3h4.1L188,92.3h-4.4l-5.5-14.1l0,0l-2.9,14.1h-4.1l4.2-20.1H179.9z
		 M189.1,67.7c-0.1,0.4-0.3,0.7-0.5,1c-0.2,0.3-0.5,0.6-0.9,0.8c-0.4,0.2-0.9,0.3-1.4,0.3c-0.4,0-0.8-0.1-1.2-0.2l-1.1-0.3
		c-0.4-0.1-0.7-0.2-1-0.3c-0.3-0.1-0.7-0.1-1-0.1c-0.3,0-0.6,0.1-0.8,0.3c-0.2,0.3-0.3,0.6-0.4,0.9H179c0.1-0.4,0.2-0.8,0.4-1.2
		c0.1-0.4,0.4-0.8,0.6-1.1c0.3-0.3,0.6-0.6,1-0.8c0.5-0.2,1-0.3,1.6-0.3c0.3,0,0.6,0.1,0.9,0.2l0.9,0.3c0.3,0.1,0.6,0.2,0.9,0.4
		c0.3,0.1,0.6,0.2,0.9,0.2c0.3,0,0.7-0.1,0.9-0.3c0.2-0.2,0.3-0.4,0.2-0.7h2L189.1,67.7z"/>
	<path class="st3" d="M206.3,72.2l3.4,20.1h-4.4l-0.6-4.5h-7.5l-2.5,4.5h-4.6l11.9-20.1H206.3z M204.2,84.5l-1-8h-0.1l-4.3,8H204.2z
		"/>
	<path class="st3" d="M110.3,98.6c0.9,0,1.9,0.1,2.8,0.3c0.8,0.2,1.5,0.5,2.2,1c0.6,0.5,1.1,1.1,1.4,1.8c0.4,0.9,0.6,1.8,0.5,2.8
		c0.1,2-0.8,3.9-2.3,5.2c-0.7,0.6-1.6,1.1-2.5,1.4c-1,0.3-2,0.5-3,0.5H104l-1.5,7.2H98l4.2-20.1L110.3,98.6z M109.2,108
		c1,0.1,1.9-0.2,2.7-0.8c0.7-0.7,1.1-1.7,1-2.7c0-0.4-0.1-0.9-0.3-1.2c-0.2-0.3-0.4-0.6-0.7-0.8c-0.3-0.2-0.6-0.3-1-0.4
		c-0.4-0.1-0.8-0.1-1.1-0.1H106l-1.2,6L109.2,108z"/>
	<path class="st3" d="M134.4,114.1c-0.4,1-1,2-1.8,2.8c-0.8,0.8-1.7,1.3-2.8,1.7c-1.3,0.4-2.6,0.6-4,0.6c-1,0-1.9-0.1-2.9-0.3
		c-0.9-0.2-1.8-0.5-2.5-1c-0.7-0.5-1.4-1.1-1.8-1.8c-0.5-0.9-0.7-1.8-0.7-2.8c0-0.5,0-1,0.1-1.5c0.1-0.5,0.2-1,0.3-1.5l2.4-11.6h4.4
		l-2.4,11.6l-0.1,0.6c0,0.2-0.1,0.4-0.1,0.7c0,0.2-0.1,0.5-0.1,0.7c0,0.2,0,0.4,0,0.6c0,0.3,0.1,0.6,0.2,0.8
		c0.1,0.3,0.3,0.7,0.6,0.9c0.3,0.3,0.7,0.5,1.2,0.7c0.6,0.2,1.2,0.3,1.9,0.3c0.7,0,1.5-0.1,2.2-0.3c0.5-0.2,1-0.6,1.4-1
		c0.4-0.5,0.6-1,0.8-1.6c0.2-0.6,0.4-1.3,0.5-2.1l2.5-11.9h4.4l-2.4,11.7C135.3,111.6,134.9,112.8,134.4,114.1z"/>
	<path class="st3" d="M157.2,98.6l-0.8,3.7h-10.9l-0.9,4.3h10.1L154,110h-10.1l-1,4.9H154l-0.8,3.7h-15.5l4.2-20.1L157.2,98.6z"/>
	<path class="st3" d="M168,98.6c2.8,0,5,0.7,6.4,2c1.5,1.5,2.3,3.6,2.1,5.8c0,1.7-0.2,3.3-0.7,4.9c-0.5,1.4-1.2,2.8-2.2,3.9
		c-1,1.1-2.2,2-3.6,2.6c-1.6,0.7-3.3,1-5.1,0.9h-8.4l4.2-20.1L168,98.6z M165.1,115c1,0,2.1-0.2,3-0.6c0.8-0.4,1.6-1,2.2-1.7
		c0.6-0.7,1.1-1.6,1.4-2.5c0.3-1,0.5-2,0.5-3c0-0.7-0.1-1.3-0.2-2c-0.1-0.6-0.4-1.1-0.8-1.5c-0.4-0.4-0.8-0.8-1.4-1
		c-0.6-0.2-1.3-0.4-2-0.3h-3.3l-2.7,12.7H165.1z"/>
	<path class="st3" d="M196.9,98.6l-0.8,3.7h-10.9l-0.9,4.3h10.1l-0.7,3.4h-10.1l-1,4.9h11.1l-0.8,3.7h-15.5l4.2-20.1H196.9z"/>
	<path class="st3" d="M201.2,114.3l-0.9,4.3h-4.4l0.9-4.3H201.2z"/>
	<rect x="205.1" y="116" class="st4" width="18.4" height="4.8"/>
	<rect x="223.5" y="106.3" class="st4" width="18.4" height="4.8"/>
	<rect x="214.3" y="111.2" class="st2" width="18.4" height="4.8"/>
	<rect x="195.9" y="120.8" class="st5" width="18.4" height="4.8"/>
	<polygon class="st6" points="199.5,121.3 199.4,121.5 199.2,121.5 199.4,121.6 199.3,121.8 199.5,121.7 199.7,121.8 199.6,121.6 
		199.8,121.5 199.6,121.5 	"/>
	<polygon class="st6" points="198.6,121.5 198.5,121.7 198.3,121.7 198.5,121.9 198.4,122.1 198.6,121.9 198.8,122.1 198.7,121.9 
		198.9,121.7 198.7,121.7 	"/>
	<polygon class="st6" points="197.6,123.2 197.4,123.2 197.6,123.3 197.5,123.5 197.7,123.4 197.9,123.5 197.8,123.3 198,123.2 
		197.8,123.2 197.7,122.9 	"/>
	<polygon class="st6" points="197.9,123.8 197.9,124 197.6,124 197.8,124.1 197.7,124.4 197.9,124.2 198.1,124.4 198.1,124.1 
		198.3,124 198,124 	"/>
	<polygon class="st6" points="198.6,124.4 198.5,124.6 198.2,124.6 198.4,124.8 198.4,125 198.6,124.8 198.8,125 198.7,124.8 
		198.9,124.6 198.6,124.6 	"/>
	<polygon class="st6" points="199.4,124.8 199.1,124.8 199.4,125 199.3,125.2 199.5,125.1 199.7,125.2 199.6,125 199.8,124.8 
		199.6,124.8 199.5,124.6 	"/>
	<polygon class="st6" points="200.4,124.4 200.3,124.6 200,124.6 200.2,124.8 200.2,125 200.4,124.9 200.6,125 200.5,124.8 
		200.7,124.6 200.4,124.6 	"/>
	<polygon class="st6" points="201,122.1 200.9,122.3 200.7,122.3 200.9,122.5 200.8,122.7 201,122.6 201.2,122.7 201.1,122.5 
		201.3,122.3 201.1,122.3 	"/>
	<polygon class="st6" points="201.2,123.2 200.9,123.2 201.1,123.3 201,123.6 201.2,123.4 201.4,123.6 201.4,123.3 201.6,123.2 
		201.3,123.2 201.2,122.9 	"/>
	<polygon class="st6" points="200.4,121.5 200.3,121.7 200,121.7 200.2,121.9 200.1,122.1 200.4,121.9 200.6,122.1 200.5,121.9 
		200.7,121.7 200.4,121.7 	"/>
	<polygon class="st6" points="201,123.8 200.9,124 200.7,124 200.9,124.1 200.8,124.3 201,124.2 201.2,124.3 201.1,124.1 201.3,124 
		201.1,124 	"/>
	<polygon class="st6" points="197.9,122.1 197.9,122.3 197.6,122.3 197.8,122.5 197.8,122.7 197.9,122.6 198.1,122.7 198.1,122.5 
		198.3,122.3 198,122.3 	"/>
</g>
<g id="Capa_4">
	<g id="Capa_3">
		<rect x="-9.4" y="-7.2" class="st0" width="348.9" height="182"/>
		<polygon class="st7" points="113.4,31.8 113.4,53.8 93.2,53.8 93.2,142.4 69.4,142.4 69.4,53.8 49.2,53.8 49.2,31.8 		"/>
		<path class="st7" d="M136.9,107.2l-3.3,1.1c-5.4,1.7-11,2.8-16.6,3.2l-6.1,0.2l21.9,30.7h29.4L136.9,107.2z"/>
		<polygon class="st8" points="64.8,127.5 57.7,127.1 56.6,120.7 53.1,126.9 45.6,126.4 50.8,130.9 47.2,137.2 54,133.7 60.7,138 
			58.6,131.5 		"/>
		<polygon class="st8" points="44.7,105.6 38.1,105.2 37.1,99.5 33.8,105 26.8,104.6 31.6,108.6 27.4,114.2 34.6,111.1 39.9,114.9 
			38.9,109.2 		"/>
		<polygon class="st8" points="42.5,81.8 36.5,81.4 35.5,76.5 32.6,81.2 26.3,80.8 30.7,84.3 26.9,89.1 33.4,86.4 38.1,89.7 
			37.3,84.8 		"/>
		<polygon class="st8" points="53.6,63.3 48.4,63 47.6,59.1 45,62.8 39.6,62.5 43.4,65.2 40.1,69 45.7,66.9 49.9,69.5 49.1,65.7 		
			"/>
		<path class="st8" d="M155.8,54.6c-2.1-4.7-5-8.7-8.8-12.1c-3.8-3.4-8.5-6-13.9-7.8c-8.9-2.9-17.4-2.8-17.4-2.8c0,7.4,0,14.6,0,22
			c3.9,0.4,8,1.4,11.7,4.3c3.7,2.8,5.6,7,5.6,12.5V71c0,4.7-1.8,8.7-5.3,12c-3.5,3.2-8.5,4.8-14.9,4.8l-17.3,0c0,7.3,0,14.4,0,21.7
			h16.4c6.5,0,12.6-0.8,18.3-2.5c5.7-1.6,10.7-4.1,14.9-7.4c4.3-3.3,7.6-7.3,10-12.2c2.4-4.9,3.7-10.5,3.7-16.9v-0.3
			C158.9,64.5,157.8,59.3,155.8,54.6z"/>
	</g>
</g>
<g id="Capa_6">
	<g>
		<path class="st9" d="M182.9,58.2h5.2c3.1,0,5.1,1.8,5.1,4.4v0c0,3-2.4,4.5-5.3,4.5h-2.6v4.3h-2.3V58.2z M188,65.1
			c1.8,0,2.9-1,2.9-2.4v0c0-1.6-1.1-2.4-2.9-2.4h-2.7v4.8H188z"/>
		<path class="st9" d="M195.5,57.6h2.3v13.9h-2.3V57.6z"/>
		<path class="st9" d="M206.9,71.5v-1.2c-0.7,0.8-1.7,1.4-3.2,1.4c-1.9,0-3.6-1.1-3.6-3.1v0c0-2.2,1.7-3.3,4.1-3.3
			c1.2,0,2,0.2,2.8,0.4v-0.2c0-1.4-0.9-2.1-2.5-2.1c-1.1,0-2,0.2-2.9,0.6l-0.6-1.8c1.1-0.5,2.2-0.8,3.8-0.8c3,0,4.4,1.6,4.4,4.2v5.9
			H206.9z M207,67.3c-0.6-0.2-1.4-0.4-2.3-0.4c-1.4,0-2.3,0.6-2.3,1.6v0c0,0.9,0.9,1.5,1.9,1.5c1.5,0,2.7-0.9,2.7-2.1V67.3z"/>
		<path class="st9" d="M211.9,61.5h2.3V63c0.6-1,1.6-1.8,3.1-1.8c2.3,0,3.6,1.5,3.6,3.9v6.4h-2.3v-5.7c0-1.6-0.8-2.5-2.1-2.5
			c-1.3,0-2.3,0.9-2.3,2.5v5.7h-2.3V61.5z"/>
		<path class="st9" d="M228.9,66.5L228.9,66.5c0-3.4,2.3-5.2,4.7-5.2c1.7,0,2.7,0.8,3.4,1.8v-5.4h2.3v13.9H237v-1.7
			c-0.7,1-1.8,1.9-3.4,1.9C231.2,71.7,228.9,69.8,228.9,66.5z M237,66.5L237,66.5c0-2-1.4-3.2-2.9-3.2c-1.6,0-2.9,1.2-2.9,3.2v0
			c0,1.9,1.3,3.2,2.9,3.2C235.7,69.7,237,68.4,237,66.5z"/>
		<path class="st9" d="M241.6,66.5L241.6,66.5c0-2.9,2-5.3,4.9-5.3c3.2,0,4.8,2.5,4.8,5.4c0,0.2,0,0.4,0,0.6h-7.4
			c0.2,1.6,1.4,2.5,2.9,2.5c1.1,0,1.9-0.4,2.7-1.2l1.3,1.2c-1,1.1-2.3,1.9-4.1,1.9C243.8,71.7,241.6,69.6,241.6,66.5z M249,65.8
			c-0.2-1.5-1-2.6-2.5-2.6c-1.4,0-2.4,1.1-2.6,2.6H249z"/>
		<path class="st9" d="M182.9,81h5.9c1.7,0,3,0.5,3.8,1.3c0.7,0.7,1.1,1.7,1.1,2.9v0c0,2.2-1.3,3.5-3.2,4l3.6,5h-2.8l-3.3-4.6h-2.9
			v4.6h-2.3V81z M188.7,87.6c1.7,0,2.7-0.9,2.7-2.2v0c0-1.4-1-2.2-2.8-2.2h-3.4v4.5H188.7z"/>
		<path class="st9" d="M195.7,89.3L195.7,89.3c0-2.9,2-5.3,4.9-5.3c3.2,0,4.8,2.5,4.8,5.4c0,0.2,0,0.4,0,0.6H198
			c0.2,1.6,1.4,2.5,2.9,2.5c1.1,0,1.9-0.4,2.7-1.2l1.3,1.2c-1,1.1-2.3,1.9-4.1,1.9C197.9,94.5,195.7,92.4,195.7,89.3z M203.1,88.6
			c-0.2-1.5-1-2.6-2.5-2.6c-1.4,0-2.4,1.1-2.6,2.6H203.1z"/>
		<path class="st9" d="M207.1,89.3L207.1,89.3c0-2.9,2.2-5.3,5.2-5.3c1.9,0,3.1,0.7,4,1.7l-1.4,1.5c-0.7-0.7-1.4-1.3-2.6-1.3
			c-1.7,0-2.9,1.4-2.9,3.2v0c0,1.8,1.2,3.2,3,3.2c1.1,0,1.9-0.5,2.6-1.3l1.4,1.4c-1,1.1-2.1,1.9-4.1,1.9
			C209.3,94.5,207.1,92.2,207.1,89.3z"/>
		<path class="st9" d="M218.4,90.7v-6.4h2.3V90c0,1.6,0.8,2.5,2.1,2.5c1.3,0,2.3-0.9,2.3-2.5v-5.7h2.3v10h-2.3v-1.6
			c-0.6,1-1.6,1.8-3.1,1.8C219.7,94.5,218.4,93,218.4,90.7z"/>
		<path class="st9" d="M230.3,84.3h2.3v1.7c0.7-1,1.8-1.9,3.4-1.9c2.4,0,4.7,1.9,4.7,5.2v0c0,3.3-2.3,5.2-4.7,5.2
			c-1.7,0-2.7-0.8-3.4-1.8v4.6h-2.3V84.3z M238.4,89.3L238.4,89.3c0-2-1.3-3.2-2.9-3.2s-2.9,1.3-2.9,3.2v0c0,1.9,1.4,3.2,2.9,3.2
			C237.1,92.5,238.4,91.3,238.4,89.3z"/>
		<path class="st9" d="M242.5,89.3L242.5,89.3c0-2.9,2-5.3,4.9-5.3c3.2,0,4.8,2.5,4.8,5.4c0,0.2,0,0.4,0,0.6h-7.4
			c0.2,1.6,1.4,2.5,2.9,2.5c1.1,0,1.9-0.4,2.7-1.2l1.3,1.2c-1,1.1-2.3,1.9-4.1,1.9C244.7,94.5,242.5,92.4,242.5,89.3z M249.9,88.6
			c-0.2-1.5-1-2.6-2.5-2.6c-1.4,0-2.4,1.1-2.6,2.6H249.9z"/>
		<path class="st9" d="M254.5,84.3h2.3v2.3c0.6-1.5,1.8-2.5,3.6-2.5v2.4h-0.1c-2,0-3.4,1.3-3.4,4v3.8h-2.3V84.3z"/>
		<path class="st9" d="M268,94.3v-1.2c-0.7,0.8-1.7,1.4-3.2,1.4c-1.9,0-3.6-1.1-3.6-3.1v0c0-2.2,1.7-3.3,4.1-3.3
			c1.2,0,2,0.2,2.8,0.4v-0.2c0-1.4-0.9-2.1-2.5-2.1c-1.1,0-2,0.2-2.9,0.6l-0.6-1.8c1.1-0.5,2.2-0.8,3.8-0.8c3,0,4.4,1.6,4.4,4.2v5.9
			H268z M268.1,90.1c-0.6-0.2-1.4-0.4-2.3-0.4c-1.4,0-2.3,0.6-2.3,1.6v0c0,0.9,0.9,1.5,1.9,1.5c1.5,0,2.7-0.9,2.7-2.1V90.1z"/>
		<path class="st9" d="M272.5,89.3L272.5,89.3c0-2.9,2.2-5.3,5.2-5.3c1.9,0,3.1,0.7,4,1.7l-1.4,1.5c-0.7-0.7-1.4-1.3-2.6-1.3
			c-1.7,0-2.9,1.4-2.9,3.2v0c0,1.8,1.2,3.2,3,3.2c1.1,0,1.9-0.5,2.6-1.3l1.4,1.4c-1,1.1-2.1,1.9-4.1,1.9
			C274.7,94.5,272.5,92.2,272.5,89.3z"/>
		<path class="st9" d="M283.9,80.5h2.5v2.2h-2.5V80.5z M284,84.3h2.3v10H284V84.3z"/>
		<path class="st9" d="M288.8,89.3L288.8,89.3c0-2.9,2.3-5.3,5.4-5.3s5.3,2.3,5.3,5.2v0c0,2.8-2.3,5.2-5.4,5.2
			C291,94.5,288.8,92.2,288.8,89.3z M297.2,89.3L297.2,89.3c0-1.8-1.3-3.3-3.1-3.3c-1.8,0-3,1.4-3,3.2v0c0,1.7,1.3,3.2,3.1,3.2
			C296,92.5,297.2,91.1,297.2,89.3z M295.2,79.9l2.1,0.9l-2.3,2.2h-1.7L295.2,79.9z"/>
		<path class="st9" d="M301.8,84.3h2.3v1.6c0.6-1,1.6-1.8,3.1-1.8c2.3,0,3.6,1.5,3.6,3.9v6.4h-2.3v-5.7c0-1.6-0.8-2.5-2.1-2.5
			c-1.3,0-2.3,0.9-2.3,2.5v5.7h-2.3V84.3z"/>
		<path class="st9" d="M312.8,96.1c1.2-0.2,1.7-0.8,1.6-1.8h-1v-2.6h2.5v2.2c0,2.1-1,3-2.9,3.2L312.8,96.1z"/>
		<path class="st9" d="M186.2,106H182v-2.2h10.8v2.2h-4.2v11.1h-2.4V106z"/>
		<path class="st9" d="M193.6,107.1h2.3v2.3c0.6-1.5,1.8-2.5,3.6-2.5v2.4h-0.1c-2,0-3.4,1.3-3.4,4v3.8h-2.3V107.1z"/>
		<path class="st9" d="M207.1,117.1v-1.2c-0.7,0.8-1.7,1.4-3.2,1.4c-1.9,0-3.6-1.1-3.6-3.1v0c0-2.2,1.7-3.3,4.1-3.3
			c1.2,0,2,0.2,2.8,0.4v-0.2c0-1.4-0.9-2.1-2.5-2.1c-1.1,0-2,0.2-2.9,0.6l-0.6-1.8c1.1-0.5,2.2-0.8,3.8-0.8c3,0,4.4,1.6,4.4,4.2v5.9
			H207.1z M207.2,112.9c-0.6-0.2-1.4-0.4-2.3-0.4c-1.4,0-2.3,0.6-2.3,1.6v0c0,1,0.9,1.5,1.9,1.5c1.5,0,2.7-0.9,2.7-2.1V112.9z"/>
		<path class="st9" d="M212.1,107.1h2.3v1.6c0.6-1,1.6-1.8,3.1-1.8c2.3,0,3.6,1.5,3.6,3.9v6.4h-2.3v-5.7c0-1.6-0.8-2.5-2.1-2.5
			c-1.3,0-2.3,0.9-2.3,2.5v5.7h-2.3V107.1z"/>
		<path class="st9" d="M223.1,115.8l1-1.6c1.1,0.8,2.3,1.2,3.3,1.2c1,0,1.6-0.4,1.6-1.1v0c0-0.8-1.1-1-2.2-1.4
			c-1.5-0.4-3.1-1-3.1-2.9v0c0-1.9,1.6-3.1,3.6-3.1c1.3,0,2.6,0.4,3.7,1.1l-0.9,1.6c-1-0.6-2-1-2.8-1c-0.9,0-1.4,0.4-1.4,1v0
			c0,0.7,1.1,1,2.3,1.4c1.5,0.5,3.1,1.1,3.1,2.9v0c0,2.1-1.6,3.2-3.7,3.2C225.9,117.3,224.3,116.8,223.1,115.8z"/>
		<path class="st9" d="M233.9,109h-1.3v-1.9h1.3v-0.7c0-1.1,0.3-2,0.8-2.5c0.5-0.5,1.3-0.8,2.3-0.8c0.8,0,1.3,0.1,1.9,0.3v1.9
			c-0.5-0.2-0.9-0.2-1.3-0.2c-0.9,0-1.3,0.5-1.3,1.5v0.6h2.7v1.9h-2.6v8.1h-2.3V109z"/>
		<path class="st9" d="M239.8,112.1L239.8,112.1c0-2.9,2.3-5.3,5.4-5.3s5.3,2.3,5.3,5.2v0c0,2.8-2.3,5.2-5.4,5.2
			C242.1,117.3,239.8,115,239.8,112.1z M248.2,112.1L248.2,112.1c0-1.8-1.3-3.3-3.1-3.3c-1.8,0-3,1.4-3,3.2v0c0,1.7,1.3,3.2,3.1,3.2
			C247,115.3,248.2,113.9,248.2,112.1z"/>
		<path class="st9" d="M252.8,107.1h2.3v2.3c0.6-1.5,1.8-2.5,3.6-2.5v2.4h-0.1c-2,0-3.4,1.3-3.4,4v3.8h-2.3V107.1z"/>
		<path class="st9" d="M260.7,107.1h2.3v1.5c0.6-0.9,1.5-1.7,3.1-1.7c1.4,0,2.5,0.7,3,1.8c0.8-1.1,1.9-1.8,3.4-1.8
			c2.2,0,3.5,1.4,3.5,3.8v6.4h-2.3v-5.7c0-1.6-0.7-2.5-2-2.5c-1.3,0-2.1,0.9-2.1,2.5v5.7h-2.3v-5.7c0-1.6-0.8-2.4-2-2.4
			c-1.3,0-2.1,1-2.1,2.5v5.6h-2.3V107.1z"/>
		<path class="st9" d="M284.9,117.1v-1.2c-0.7,0.8-1.7,1.4-3.2,1.4c-1.9,0-3.6-1.1-3.6-3.1v0c0-2.2,1.7-3.3,4.1-3.3
			c1.2,0,2,0.2,2.8,0.4v-0.2c0-1.4-0.9-2.1-2.5-2.1c-1.1,0-2,0.2-2.9,0.6l-0.6-1.8c1.1-0.5,2.2-0.8,3.8-0.8c3,0,4.4,1.6,4.4,4.2v5.9
			H284.9z M284.9,112.9c-0.6-0.2-1.4-0.4-2.3-0.4c-1.4,0-2.3,0.6-2.3,1.6v0c0,1,0.9,1.5,1.9,1.5c1.5,0,2.7-0.9,2.7-2.1V112.9z"/>
		<path class="st9" d="M289.3,112.1L289.3,112.1c0-2.9,2.2-5.3,5.2-5.3c1.9,0,3.1,0.7,4,1.7l-1.4,1.5c-0.7-0.7-1.4-1.3-2.6-1.3
			c-1.7,0-2.9,1.4-2.9,3.2v0c0,1.8,1.2,3.2,3,3.2c1.1,0,1.9-0.5,2.6-1.3l1.4,1.4c-1,1.1-2.1,1.9-4.1,1.9
			C291.6,117.3,289.3,115,289.3,112.1z"/>
		<path class="st9" d="M300.8,103.3h2.5v2.2h-2.5V103.3z M300.9,107.1h2.3v10h-2.3V107.1z"/>
		<path class="st9" d="M305.6,112.1L305.6,112.1c0-2.9,2.3-5.3,5.4-5.3s5.3,2.3,5.3,5.2v0c0,2.8-2.3,5.2-5.4,5.2
			C307.9,117.3,305.6,115,305.6,112.1z M314,112.1L314,112.1c0-1.8-1.3-3.3-3.1-3.3c-1.8,0-3,1.4-3,3.2v0c0,1.7,1.3,3.2,3.1,3.2
			C312.8,115.3,314,113.9,314,112.1z M312,102.7l2.1,0.9l-2.3,2.2h-1.7L312,102.7z"/>
		<path class="st9" d="M318.7,107.1h2.3v1.6c0.6-1,1.6-1.8,3.1-1.8c2.3,0,3.6,1.5,3.6,3.9v6.4h-2.3v-5.7c0-1.6-0.8-2.5-2.1-2.5
			c-1.3,0-2.3,0.9-2.3,2.5v5.7h-2.3V107.1z"/>
		<path class="st9" d="M182.3,142.4l0.8-1.7c0.4,0.2,0.9,0.4,1.3,0.4c0.6,0,1-0.3,1.4-1.2l-4.2-10h2.5l2.8,7.4l2.6-7.4h2.4l-4,10.3
			c-0.8,2.1-1.7,2.8-3.3,2.8C183.7,143,183,142.8,182.3,142.4z"/>
		<path class="st9" d="M200,126.6h5.9c1.7,0,3,0.5,3.8,1.3c0.7,0.7,1.1,1.7,1.1,2.9v0c0,2.2-1.3,3.5-3.2,4l3.6,5h-2.8l-3.3-4.6h-2.9
			v4.6H200V126.6z M205.7,133.2c1.7,0,2.7-0.9,2.7-2.2v0c0-1.4-1-2.2-2.8-2.2h-3.4v4.5H205.7z"/>
		<path class="st9" d="M212.7,134.9L212.7,134.9c0-2.9,2-5.3,4.9-5.3c3.2,0,4.8,2.5,4.8,5.4c0,0.2,0,0.4,0,0.6H215
			c0.2,1.6,1.4,2.5,2.9,2.5c1.1,0,1.9-0.4,2.7-1.2l1.3,1.2c-1,1.1-2.3,1.9-4.1,1.9C214.9,140.1,212.7,138,212.7,134.9z M220.1,134.2
			c-0.2-1.5-1-2.6-2.5-2.6c-1.4,0-2.4,1.1-2.6,2.6H220.1z"/>
		<path class="st9" d="M223.9,138.6l1-1.6c1.1,0.8,2.3,1.2,3.3,1.2c1,0,1.6-0.4,1.6-1.1v0c0-0.8-1.1-1-2.2-1.4
			c-1.5-0.4-3.1-1-3.1-2.9v0c0-1.9,1.6-3.1,3.6-3.1c1.3,0,2.6,0.4,3.7,1.1l-0.9,1.6c-1-0.6-2-1-2.8-1c-0.9,0-1.4,0.4-1.4,1v0
			c0,0.7,1.1,1,2.3,1.4c1.5,0.5,3.1,1.1,3.1,2.9v0c0,2.1-1.6,3.2-3.7,3.2C226.7,140.1,225.1,139.6,223.9,138.6z"/>
		<path class="st9" d="M234.2,126.1h2.5v2.2h-2.5V126.1z M234.3,129.9h2.3v10h-2.3V129.9z"/>
		<path class="st9" d="M239.8,126h2.3v13.9h-2.3V126z"/>
		<path class="st9" d="M245.1,126.1h2.5v2.2h-2.5V126.1z M245.2,129.9h2.3v10h-2.3V129.9z"/>
		<path class="st9" d="M250,134.9L250,134.9c0-2.9,2-5.3,4.9-5.3c3.2,0,4.8,2.5,4.8,5.4c0,0.2,0,0.4,0,0.6h-7.4
			c0.2,1.6,1.4,2.5,2.9,2.5c1.1,0,1.9-0.4,2.7-1.2l1.3,1.2c-1,1.1-2.3,1.9-4.1,1.9C252.2,140.1,250,138,250,134.9z M257.4,134.2
			c-0.2-1.5-1-2.6-2.5-2.6c-1.4,0-2.4,1.1-2.6,2.6H257.4z"/>
		<path class="st9" d="M262,129.9h2.3v1.6c0.6-1,1.6-1.8,3.1-1.8c2.3,0,3.6,1.5,3.6,3.9v6.4h-2.3v-5.7c0-1.6-0.8-2.5-2.1-2.5
			c-1.3,0-2.3,0.9-2.3,2.5v5.7H262V129.9z"/>
		<path class="st9" d="M273.2,134.9L273.2,134.9c0-2.9,2.2-5.3,5.2-5.3c1.9,0,3.1,0.7,4,1.7l-1.4,1.5c-0.7-0.7-1.4-1.3-2.6-1.3
			c-1.7,0-2.9,1.4-2.9,3.2v0c0,1.8,1.2,3.2,3,3.2c1.1,0,1.9-0.5,2.6-1.3l1.4,1.4c-1,1.1-2.1,1.9-4.1,1.9
			C275.4,140.1,273.2,137.8,273.2,134.9z"/>
		<path class="st9" d="M284.7,126.1h2.5v2.2h-2.5V126.1z M284.8,129.9h2.3v10h-2.3V129.9z"/>
		<path class="st9" d="M296.2,139.9v-1.2c-0.7,0.8-1.7,1.4-3.2,1.4c-1.9,0-3.6-1.1-3.6-3.1v0c0-2.2,1.7-3.3,4.1-3.3
			c1.2,0,2,0.2,2.8,0.4v-0.2c0-1.4-0.9-2.1-2.5-2.1c-1.1,0-2,0.2-2.9,0.6l-0.6-1.8c1.1-0.5,2.2-0.8,3.8-0.8c3,0,4.4,1.6,4.4,4.2v5.9
			H296.2z M296.2,135.7c-0.6-0.2-1.4-0.4-2.3-0.4c-1.4,0-2.3,0.6-2.3,1.6v0c0,1,0.9,1.5,1.9,1.5c1.5,0,2.7-0.9,2.7-2.1V135.7z"/>
	</g>
	<g class="st0">
		<path class="st3" d="M183.7,58.2h5.2c3.1,0,5.1,1.8,5.1,4.4v0c0,3-2.4,4.5-5.3,4.5H186v4.3h-2.3V58.2z M188.7,65.1
			c1.8,0,2.9-1,2.9-2.4v0c0-1.6-1.1-2.4-2.9-2.4H186v4.8H188.7z"/>
		<path class="st3" d="M196.2,57.6h2.3v13.9h-2.3V57.6z"/>
		<path class="st3" d="M207.7,71.5v-1.2c-0.7,0.8-1.7,1.4-3.2,1.4c-1.9,0-3.6-1.1-3.6-3.1v0c0-2.2,1.7-3.3,4.1-3.3
			c1.2,0,2,0.2,2.8,0.4v-0.2c0-1.4-0.9-2.1-2.5-2.1c-1.1,0-2,0.2-2.9,0.6l-0.6-1.8c1.1-0.5,2.2-0.8,3.8-0.8c3,0,4.4,1.6,4.4,4.2v5.9
			H207.7z M207.7,67.3c-0.6-0.2-1.4-0.4-2.3-0.4c-1.4,0-2.3,0.6-2.3,1.6v0c0,0.9,0.9,1.5,1.9,1.5c1.5,0,2.7-0.9,2.7-2.1V67.3z"/>
		<path class="st3" d="M212.7,61.5h2.3V63c0.6-1,1.6-1.8,3.1-1.8c2.3,0,3.6,1.5,3.6,3.9v6.4h-2.3v-5.7c0-1.6-0.8-2.5-2.1-2.5
			c-1.3,0-2.3,0.9-2.3,2.5v5.7h-2.3V61.5z"/>
		<path class="st3" d="M229.7,66.5L229.7,66.5c0-3.4,2.3-5.2,4.7-5.2c1.7,0,2.7,0.8,3.4,1.8v-5.4h2.3v13.9h-2.3v-1.7
			c-0.7,1-1.8,1.9-3.4,1.9C232,71.7,229.7,69.8,229.7,66.5z M237.8,66.5L237.8,66.5c0-2-1.4-3.2-2.9-3.2c-1.6,0-2.9,1.2-2.9,3.2v0
			c0,1.9,1.3,3.2,2.9,3.2C236.4,69.7,237.8,68.4,237.8,66.5z"/>
		<path class="st3" d="M242.4,66.5L242.4,66.5c0-2.9,2-5.3,4.9-5.3c3.2,0,4.8,2.5,4.8,5.4c0,0.2,0,0.4,0,0.6h-7.4
			c0.2,1.6,1.4,2.5,2.9,2.5c1.1,0,1.9-0.4,2.7-1.2l1.3,1.2c-1,1.1-2.3,1.9-4.1,1.9C244.6,71.7,242.4,69.6,242.4,66.5z M249.8,65.8
			c-0.2-1.5-1-2.6-2.5-2.6c-1.4,0-2.4,1.1-2.6,2.6H249.8z"/>
		<path class="st3" d="M183.7,81h5.9c1.7,0,3,0.5,3.8,1.3c0.7,0.7,1.1,1.7,1.1,2.9v0c0,2.2-1.3,3.5-3.2,4l3.6,5h-2.8l-3.3-4.6H186
			v4.6h-2.3V81z M189.4,87.6c1.7,0,2.7-0.9,2.7-2.2v0c0-1.4-1-2.2-2.8-2.2H186v4.5H189.4z"/>
		<path class="st3" d="M196.4,89.3L196.4,89.3c0-2.9,2-5.3,4.9-5.3c3.2,0,4.8,2.5,4.8,5.4c0,0.2,0,0.4,0,0.6h-7.4
			c0.2,1.6,1.4,2.5,2.9,2.5c1.1,0,1.9-0.4,2.7-1.2l1.3,1.2c-1,1.1-2.3,1.9-4.1,1.9C198.7,94.5,196.4,92.4,196.4,89.3z M203.8,88.6
			c-0.2-1.5-1-2.6-2.5-2.6c-1.4,0-2.4,1.1-2.6,2.6H203.8z"/>
		<path class="st3" d="M207.9,89.3L207.9,89.3c0-2.9,2.2-5.3,5.2-5.3c1.9,0,3.1,0.7,4,1.7l-1.4,1.5c-0.7-0.7-1.4-1.3-2.6-1.3
			c-1.7,0-2.9,1.4-2.9,3.2v0c0,1.8,1.2,3.2,3,3.2c1.1,0,1.9-0.5,2.6-1.3l1.4,1.4c-1,1.1-2.1,1.9-4.1,1.9
			C210.1,94.5,207.9,92.2,207.9,89.3z"/>
		<path class="st3" d="M219.2,90.7v-6.4h2.3V90c0,1.6,0.8,2.5,2.1,2.5c1.3,0,2.3-0.9,2.3-2.5v-5.7h2.3v10h-2.3v-1.6
			c-0.6,1-1.6,1.8-3.1,1.8C220.5,94.5,219.2,93,219.2,90.7z"/>
		<path class="st3" d="M231.1,84.3h2.3v1.7c0.7-1,1.8-1.9,3.4-1.9c2.4,0,4.7,1.9,4.7,5.2v0c0,3.3-2.3,5.2-4.7,5.2
			c-1.7,0-2.7-0.8-3.4-1.8v4.6h-2.3V84.3z M239.1,89.3L239.1,89.3c0-2-1.3-3.2-2.9-3.2s-2.9,1.3-2.9,3.2v0c0,1.9,1.4,3.2,2.9,3.2
			C237.8,92.5,239.1,91.3,239.1,89.3z"/>
		<path class="st3" d="M243.3,89.3L243.3,89.3c0-2.9,2-5.3,4.9-5.3c3.2,0,4.8,2.5,4.8,5.4c0,0.2,0,0.4,0,0.6h-7.4
			c0.2,1.6,1.4,2.5,2.9,2.5c1.1,0,1.9-0.4,2.7-1.2l1.3,1.2c-1,1.1-2.3,1.9-4.1,1.9C245.5,94.5,243.3,92.4,243.3,89.3z M250.7,88.6
			c-0.2-1.5-1-2.6-2.5-2.6c-1.4,0-2.4,1.1-2.6,2.6H250.7z"/>
		<path class="st3" d="M255.3,84.3h2.3v2.3c0.6-1.5,1.8-2.5,3.6-2.5v2.4H261c-2,0-3.4,1.3-3.4,4v3.8h-2.3V84.3z"/>
		<path class="st3" d="M268.8,94.3v-1.2c-0.7,0.8-1.7,1.4-3.2,1.4c-1.9,0-3.6-1.1-3.6-3.1v0c0-2.2,1.7-3.3,4.1-3.3
			c1.2,0,2,0.2,2.8,0.4v-0.2c0-1.4-0.9-2.1-2.5-2.1c-1.1,0-2,0.2-2.9,0.6l-0.6-1.8c1.1-0.5,2.2-0.8,3.8-0.8c3,0,4.4,1.6,4.4,4.2v5.9
			H268.8z M268.8,90.1c-0.6-0.2-1.4-0.4-2.3-0.4c-1.4,0-2.3,0.6-2.3,1.6v0c0,0.9,0.9,1.5,1.9,1.5c1.5,0,2.7-0.9,2.7-2.1V90.1z"/>
		<path class="st3" d="M273.3,89.3L273.3,89.3c0-2.9,2.2-5.3,5.2-5.3c1.9,0,3.1,0.7,4,1.7l-1.4,1.5c-0.7-0.7-1.4-1.3-2.6-1.3
			c-1.7,0-2.9,1.4-2.9,3.2v0c0,1.8,1.2,3.2,3,3.2c1.1,0,1.9-0.5,2.6-1.3l1.4,1.4c-1,1.1-2.1,1.9-4.1,1.9
			C275.5,94.5,273.3,92.2,273.3,89.3z"/>
		<path class="st3" d="M284.7,80.5h2.5v2.2h-2.5V80.5z M284.8,84.3h2.3v10h-2.3V84.3z"/>
		<path class="st3" d="M289.5,89.3L289.5,89.3c0-2.9,2.3-5.3,5.4-5.3s5.3,2.3,5.3,5.2v0c0,2.8-2.3,5.2-5.4,5.2
			C291.8,94.5,289.5,92.2,289.5,89.3z M297.9,89.3L297.9,89.3c0-1.8-1.3-3.3-3.1-3.3c-1.8,0-3,1.4-3,3.2v0c0,1.7,1.3,3.2,3.1,3.2
			C296.8,92.5,297.9,91.1,297.9,89.3z M295.9,79.9l2.1,0.9l-2.3,2.2H294L295.9,79.9z"/>
		<path class="st3" d="M302.6,84.3h2.3v1.6c0.6-1,1.6-1.8,3.1-1.8c2.3,0,3.6,1.5,3.6,3.9v6.4h-2.3v-5.7c0-1.6-0.8-2.5-2.1-2.5
			c-1.3,0-2.3,0.9-2.3,2.5v5.7h-2.3V84.3z"/>
		<path class="st3" d="M313.6,96.1c1.2-0.2,1.7-0.8,1.6-1.8h-1v-2.6h2.5v2.2c0,2.1-1,3-2.9,3.2L313.6,96.1z"/>
		<path class="st3" d="M187,106h-4.2v-2.2h10.8v2.2h-4.2v11.1H187V106z"/>
		<path class="st3" d="M194.4,107.1h2.3v2.3c0.6-1.5,1.8-2.5,3.6-2.5v2.4h-0.1c-2,0-3.4,1.3-3.4,4v3.8h-2.3V107.1z"/>
		<path class="st3" d="M207.9,117.1v-1.2c-0.7,0.8-1.7,1.4-3.2,1.4c-1.9,0-3.6-1.1-3.6-3.1v0c0-2.2,1.7-3.3,4.1-3.3
			c1.2,0,2,0.2,2.8,0.4v-0.2c0-1.4-0.9-2.1-2.5-2.1c-1.1,0-2,0.2-2.9,0.6l-0.6-1.8c1.1-0.5,2.2-0.8,3.8-0.8c3,0,4.4,1.6,4.4,4.2v5.9
			H207.9z M207.9,112.9c-0.6-0.2-1.4-0.4-2.3-0.4c-1.4,0-2.3,0.6-2.3,1.6v0c0,1,0.9,1.5,1.9,1.5c1.5,0,2.7-0.9,2.7-2.1V112.9z"/>
		<path class="st3" d="M212.9,107.1h2.3v1.6c0.6-1,1.6-1.8,3.1-1.8c2.3,0,3.6,1.5,3.6,3.9v6.4h-2.3v-5.7c0-1.6-0.8-2.5-2.1-2.5
			c-1.3,0-2.3,0.9-2.3,2.5v5.7h-2.3V107.1z"/>
		<path class="st3" d="M223.9,115.8l1-1.6c1.1,0.8,2.3,1.2,3.3,1.2c1,0,1.6-0.4,1.6-1.1v0c0-0.8-1.1-1-2.2-1.4
			c-1.5-0.4-3.1-1-3.1-2.9v0c0-1.9,1.6-3.1,3.6-3.1c1.3,0,2.6,0.4,3.7,1.1l-0.9,1.6c-1-0.6-2-1-2.8-1c-0.9,0-1.4,0.4-1.4,1v0
			c0,0.7,1.1,1,2.3,1.4c1.5,0.5,3.1,1.1,3.1,2.9v0c0,2.1-1.6,3.2-3.7,3.2C226.7,117.3,225.1,116.8,223.9,115.8z"/>
		<path class="st3" d="M234.7,109h-1.3v-1.9h1.3v-0.7c0-1.1,0.3-2,0.8-2.5c0.5-0.5,1.3-0.8,2.3-0.8c0.8,0,1.3,0.1,1.9,0.3v1.9
			c-0.5-0.2-0.9-0.2-1.3-0.2c-0.9,0-1.3,0.5-1.3,1.5v0.6h2.7v1.9H237v8.1h-2.3V109z"/>
		<path class="st3" d="M240.6,112.1L240.6,112.1c0-2.9,2.3-5.3,5.4-5.3s5.3,2.3,5.3,5.2v0c0,2.8-2.3,5.2-5.4,5.2
			C242.8,117.3,240.6,115,240.6,112.1z M249,112.1L249,112.1c0-1.8-1.3-3.3-3.1-3.3c-1.8,0-3,1.4-3,3.2v0c0,1.7,1.3,3.2,3.1,3.2
			C247.8,115.3,249,113.9,249,112.1z"/>
		<path class="st3" d="M253.6,107.1h2.3v2.3c0.6-1.5,1.8-2.5,3.6-2.5v2.4h-0.1c-2,0-3.4,1.3-3.4,4v3.8h-2.3V107.1z"/>
		<path class="st3" d="M261.5,107.1h2.3v1.5c0.6-0.9,1.5-1.7,3.1-1.7c1.4,0,2.5,0.7,3,1.8c0.8-1.1,1.9-1.8,3.4-1.8
			c2.2,0,3.5,1.4,3.5,3.8v6.4h-2.3v-5.7c0-1.6-0.7-2.5-2-2.5c-1.3,0-2.1,0.9-2.1,2.5v5.7h-2.3v-5.7c0-1.6-0.8-2.4-2-2.4
			c-1.3,0-2.1,1-2.1,2.5v5.6h-2.3V107.1z"/>
		<path class="st3" d="M285.6,117.1v-1.2c-0.7,0.8-1.7,1.4-3.2,1.4c-1.9,0-3.6-1.1-3.6-3.1v0c0-2.2,1.7-3.3,4.1-3.3
			c1.2,0,2,0.2,2.8,0.4v-0.2c0-1.4-0.9-2.1-2.5-2.1c-1.1,0-2,0.2-2.9,0.6l-0.6-1.8c1.1-0.5,2.2-0.8,3.8-0.8c3,0,4.4,1.6,4.4,4.2v5.9
			H285.6z M285.7,112.9c-0.6-0.2-1.4-0.4-2.3-0.4c-1.4,0-2.3,0.6-2.3,1.6v0c0,1,0.9,1.5,1.9,1.5c1.5,0,2.7-0.9,2.7-2.1V112.9z"/>
		<path class="st3" d="M290.1,112.1L290.1,112.1c0-2.9,2.2-5.3,5.2-5.3c1.9,0,3.1,0.7,4,1.7l-1.4,1.5c-0.7-0.7-1.4-1.3-2.6-1.3
			c-1.7,0-2.9,1.4-2.9,3.2v0c0,1.8,1.2,3.2,3,3.2c1.1,0,1.9-0.5,2.6-1.3l1.4,1.4c-1,1.1-2.1,1.9-4.1,1.9
			C292.3,117.3,290.1,115,290.1,112.1z"/>
		<path class="st3" d="M301.5,103.3h2.5v2.2h-2.5V103.3z M301.6,107.1h2.3v10h-2.3V107.1z"/>
		<path class="st3" d="M306.4,112.1L306.4,112.1c0-2.9,2.3-5.3,5.4-5.3s5.3,2.3,5.3,5.2v0c0,2.8-2.3,5.2-5.4,5.2
			C308.7,117.3,306.4,115,306.4,112.1z M314.8,112.1L314.8,112.1c0-1.8-1.3-3.3-3.1-3.3c-1.8,0-3,1.4-3,3.2v0c0,1.7,1.3,3.2,3.1,3.2
			C313.6,115.3,314.8,113.9,314.8,112.1z M312.8,102.7l2.1,0.9l-2.3,2.2h-1.7L312.8,102.7z"/>
		<path class="st3" d="M319.4,107.1h2.3v1.6c0.6-1,1.6-1.8,3.1-1.8c2.3,0,3.6,1.5,3.6,3.9v6.4h-2.3v-5.7c0-1.6-0.8-2.5-2.1-2.5
			c-1.3,0-2.3,0.9-2.3,2.5v5.7h-2.3V107.1z"/>
		<path class="st3" d="M183.1,142.4l0.8-1.7c0.4,0.2,0.9,0.4,1.3,0.4c0.6,0,1-0.3,1.4-1.2l-4.2-10h2.5l2.8,7.4l2.6-7.4h2.4l-4,10.3
			c-0.8,2.1-1.7,2.8-3.3,2.8C184.5,143,183.8,142.8,183.1,142.4z"/>
		<path class="st3" d="M200.7,126.6h5.9c1.7,0,3,0.5,3.8,1.3c0.7,0.7,1.1,1.7,1.1,2.9v0c0,2.2-1.3,3.5-3.2,4l3.6,5h-2.8l-3.3-4.6
			H203v4.6h-2.3V126.6z M206.5,133.2c1.7,0,2.7-0.9,2.7-2.2v0c0-1.4-1-2.2-2.8-2.2H203v4.5H206.5z"/>
		<path class="st3" d="M213.4,134.9L213.4,134.9c0-2.9,2-5.3,4.9-5.3c3.2,0,4.8,2.5,4.8,5.4c0,0.2,0,0.4,0,0.6h-7.4
			c0.2,1.6,1.4,2.5,2.9,2.5c1.1,0,1.9-0.4,2.7-1.2l1.3,1.2c-1,1.1-2.3,1.9-4.1,1.9C215.7,140.1,213.4,138,213.4,134.9z M220.9,134.2
			c-0.2-1.5-1-2.6-2.5-2.6c-1.4,0-2.4,1.1-2.6,2.6H220.9z"/>
		<path class="st3" d="M224.7,138.6l1-1.6c1.1,0.8,2.3,1.2,3.3,1.2c1,0,1.6-0.4,1.6-1.1v0c0-0.8-1.1-1-2.2-1.4
			c-1.5-0.4-3.1-1-3.1-2.9v0c0-1.9,1.6-3.1,3.6-3.1c1.3,0,2.6,0.4,3.7,1.1l-0.9,1.6c-1-0.6-2-1-2.8-1c-0.9,0-1.4,0.4-1.4,1v0
			c0,0.7,1.1,1,2.3,1.4c1.5,0.5,3.1,1.1,3.1,2.9v0c0,2.1-1.6,3.2-3.7,3.2C227.5,140.1,225.9,139.6,224.7,138.6z"/>
		<path class="st3" d="M235,126.1h2.5v2.2H235V126.1z M235.1,129.9h2.3v10h-2.3V129.9z"/>
		<path class="st3" d="M240.5,126h2.3v13.9h-2.3V126z"/>
		<path class="st3" d="M245.9,126.1h2.5v2.2h-2.5V126.1z M246,129.9h2.3v10H246V129.9z"/>
		<path class="st3" d="M250.7,134.9L250.7,134.9c0-2.9,2-5.3,4.9-5.3c3.2,0,4.8,2.5,4.8,5.4c0,0.2,0,0.4,0,0.6H253
			c0.2,1.6,1.4,2.5,2.9,2.5c1.1,0,1.9-0.4,2.7-1.2l1.3,1.2c-1,1.1-2.3,1.9-4.1,1.9C253,140.1,250.7,138,250.7,134.9z M258.1,134.2
			c-0.2-1.5-1-2.6-2.5-2.6c-1.4,0-2.4,1.1-2.6,2.6H258.1z"/>
		<path class="st3" d="M262.7,129.9h2.3v1.6c0.6-1,1.6-1.8,3.1-1.8c2.3,0,3.6,1.5,3.6,3.9v6.4h-2.3v-5.7c0-1.6-0.8-2.5-2.1-2.5
			c-1.3,0-2.3,0.9-2.3,2.5v5.7h-2.3V129.9z"/>
		<path class="st3" d="M274,134.9L274,134.9c0-2.9,2.2-5.3,5.2-5.3c1.9,0,3.1,0.7,4,1.7l-1.4,1.5c-0.7-0.7-1.4-1.3-2.6-1.3
			c-1.7,0-2.9,1.4-2.9,3.2v0c0,1.8,1.2,3.2,3,3.2c1.1,0,1.9-0.5,2.6-1.3l1.4,1.4c-1,1.1-2.1,1.9-4.1,1.9
			C276.2,140.1,274,137.8,274,134.9z"/>
		<path class="st3" d="M285.4,126.1h2.5v2.2h-2.5V126.1z M285.5,129.9h2.3v10h-2.3V129.9z"/>
		<path class="st3" d="M296.9,139.9v-1.2c-0.7,0.8-1.7,1.4-3.2,1.4c-1.9,0-3.6-1.1-3.6-3.1v0c0-2.2,1.7-3.3,4.1-3.3
			c1.2,0,2,0.2,2.8,0.4v-0.2c0-1.4-0.9-2.1-2.5-2.1c-1.1,0-2,0.2-2.9,0.6l-0.6-1.8c1.1-0.5,2.2-0.8,3.8-0.8c3,0,4.4,1.6,4.4,4.2v5.9
			H296.9z M297,135.7c-0.6-0.2-1.4-0.4-2.3-0.4c-1.4,0-2.3,0.6-2.3,1.6v0c0,1,0.9,1.5,1.9,1.5c1.5,0,2.7-0.9,2.7-2.1V135.7z"/>
	</g>
</g>
<g id="Capa_5" class="st0">
	<path class="st10" d="M203.6,69.1h10.9c1.6,0,3,0.2,4.3,0.7c1.3,0.4,2.3,1.1,3.2,1.9c0.9,0.8,1.5,1.8,2,2.9
		c0.5,1.1,0.7,2.4,0.7,3.7v0.1c0,1.5-0.3,2.9-0.8,4.1c-0.6,1.2-1.3,2.1-2.3,2.9c-1,0.8-2.1,1.4-3.4,1.8c-1.3,0.4-2.7,0.6-4.2,0.6
		h-4.4v8h-5.9V69.1z M214.1,82.5c1.5,0,2.6-0.4,3.4-1.2c0.8-0.8,1.2-1.7,1.2-2.9v-0.1c0-1.3-0.4-2.3-1.3-3c-0.8-0.7-2-1-3.5-1h-4.5
		v8.1H214.1z"/>
	<path class="st10" d="M228.7,68h5.8v27.8h-5.8V68z"/>
	<path class="st10" d="M245.7,96.1c-1,0-1.9-0.1-2.7-0.4c-0.8-0.3-1.6-0.7-2.2-1.2c-0.6-0.5-1.1-1.2-1.5-2c-0.4-0.8-0.6-1.7-0.6-2.7
		v-0.1c0-1.1,0.2-2.1,0.6-2.9c0.4-0.8,1-1.5,1.7-2c0.7-0.5,1.6-0.9,2.6-1.2c1-0.3,2.1-0.4,3.3-0.4c1,0,1.9,0.1,2.7,0.2
		c0.8,0.2,1.5,0.4,2.3,0.6v-0.3c0-1.2-0.4-2.1-1.1-2.8c-0.7-0.6-1.8-1-3.3-1c-1.1,0-2.1,0.1-2.9,0.3c-0.8,0.2-1.7,0.5-2.7,0.8
		l-1.4-4.4c1.1-0.5,2.3-0.9,3.5-1.2c1.2-0.3,2.7-0.5,4.4-0.5c1.6,0,3,0.2,4.1,0.6c1.1,0.4,2.1,1,2.8,1.7c0.8,0.8,1.3,1.7,1.7,2.8
		c0.4,1.1,0.5,2.3,0.5,3.7v11.8h-5.6v-2.2c-0.7,0.8-1.6,1.4-2.5,1.9C248.3,95.9,247.1,96.1,245.7,96.1z M247.4,92.1
		c1.4,0,2.5-0.3,3.3-1c0.8-0.7,1.2-1.5,1.2-2.6v-1c-0.5-0.2-1.1-0.4-1.7-0.6c-0.6-0.1-1.3-0.2-2-0.2c-1.2,0-2.2,0.2-2.9,0.7
		c-0.7,0.5-1.1,1.2-1.1,2.1v0.1c0,0.8,0.3,1.4,0.9,1.8C245.7,91.9,246.5,92.1,247.4,92.1z"/>
	<path class="st10" d="M262.4,75.3h5.8v2.9c0.3-0.4,0.7-0.8,1.1-1.2c0.4-0.4,0.8-0.7,1.3-1.1c0.5-0.3,1-0.5,1.6-0.7
		c0.6-0.2,1.2-0.3,2-0.3c2.2,0,3.9,0.7,5.1,2c1.2,1.3,1.8,3.2,1.8,5.6v13.2h-5.8V84.4c0-1.4-0.3-2.4-0.9-3.1c-0.6-0.7-1.5-1-2.6-1
		s-2,0.3-2.6,1c-0.6,0.7-1,1.7-1,3.1v11.3h-5.8V75.3z"/>
	<path class="st10" d="M305.9,96.1c-1.2,0-2.3-0.2-3.5-0.7c-1.1-0.5-2.1-1.1-3-2c-0.9-0.9-1.6-2-2.1-3.3c-0.5-1.3-0.8-2.8-0.8-4.5
		v-0.1c0-1.7,0.3-3.2,0.8-4.5c0.5-1.3,1.2-2.4,2.1-3.3c0.8-0.9,1.8-1.6,2.9-2c1.1-0.5,2.3-0.7,3.5-0.7c1.5,0,2.8,0.3,3.8,0.9
		c1,0.6,1.8,1.3,2.5,2.1V68h5.8v27.8h-5.8v-2.9c-0.7,1-1.6,1.8-2.6,2.4C308.7,95.8,307.4,96.1,305.9,96.1z M307.4,91.2
		c0.7,0,1.3-0.1,1.9-0.4c0.6-0.3,1.1-0.6,1.6-1.1c0.4-0.5,0.8-1.1,1.1-1.8c0.3-0.7,0.4-1.5,0.4-2.3v-0.1c0-0.8-0.1-1.6-0.4-2.3
		c-0.3-0.7-0.6-1.3-1.1-1.8c-0.4-0.5-1-0.9-1.6-1.1c-0.6-0.3-1.2-0.4-1.9-0.4s-1.3,0.1-1.9,0.4c-0.6,0.3-1.1,0.6-1.6,1.1
		c-0.5,0.5-0.8,1.1-1.1,1.8c-0.3,0.7-0.4,1.5-0.4,2.3v0.1c0,0.8,0.1,1.6,0.4,2.3c0.3,0.7,0.6,1.3,1.1,1.8c0.5,0.5,1,0.9,1.6,1.1
		C306,91.1,306.7,91.2,307.4,91.2z"/>
	<path class="st10" d="M332.8,96.2c-1.5,0-2.9-0.3-4.2-0.8c-1.3-0.5-2.4-1.2-3.4-2.2c-1-0.9-1.7-2-2.2-3.3c-0.5-1.3-0.8-2.7-0.8-4.3
		v-0.1c0-1.4,0.2-2.8,0.7-4.1s1.2-2.4,2.1-3.4c0.9-1,1.9-1.7,3.2-2.3c1.2-0.6,2.6-0.8,4.1-0.8c1.7,0,3.2,0.3,4.4,0.9
		c1.2,0.6,2.3,1.4,3.1,2.5c0.8,1,1.4,2.2,1.8,3.5c0.4,1.3,0.6,2.7,0.6,4.2c0,0.2,0,0.5,0,0.7c0,0.3,0,0.5-0.1,0.8h-14.2
		c0.3,1.3,0.9,2.3,1.7,3c0.9,0.7,2,1,3.3,1c1,0,1.8-0.2,2.6-0.5c0.8-0.3,1.5-0.9,2.4-1.6l3.3,2.9c-1,1.2-2.1,2.1-3.5,2.8
		C336.3,95.8,334.7,96.2,332.8,96.2z M336.6,83.9c-0.2-1.3-0.6-2.3-1.4-3.1c-0.7-0.8-1.7-1.2-2.9-1.2s-2.2,0.4-2.9,1.2
		c-0.7,0.8-1.2,1.8-1.5,3.2H336.6z"/>
	<path class="st10" d="M358.5,69.1h12.2c3.4,0,6,0.9,7.8,2.7c1.5,1.5,2.3,3.6,2.3,6.1V78c0,2.2-0.5,3.9-1.6,5.3
		c-1.1,1.4-2.4,2.4-4.1,3l6.5,9.5h-6.8l-5.7-8.5h-0.1h-4.5v8.5h-5.9V69.1z M370.3,82c1.4,0,2.6-0.3,3.3-1c0.8-0.7,1.2-1.6,1.2-2.7
		v-0.1c0-1.3-0.4-2.2-1.2-2.9c-0.8-0.6-1.9-1-3.4-1h-5.8V82H370.3z"/>
	<path class="st10" d="M395,96.2c-1.5,0-2.9-0.3-4.2-0.8c-1.3-0.5-2.4-1.2-3.4-2.2c-1-0.9-1.7-2-2.2-3.3c-0.5-1.3-0.8-2.7-0.8-4.3
		v-0.1c0-1.4,0.2-2.8,0.7-4.1s1.2-2.4,2.1-3.4c0.9-1,1.9-1.7,3.2-2.3c1.2-0.6,2.6-0.8,4.1-0.8c1.7,0,3.2,0.3,4.4,0.9
		c1.2,0.6,2.3,1.4,3.1,2.5c0.8,1,1.4,2.2,1.8,3.5c0.4,1.3,0.6,2.7,0.6,4.2c0,0.2,0,0.5,0,0.7c0,0.3,0,0.5-0.1,0.8h-14.2
		c0.3,1.3,0.9,2.3,1.7,3c0.9,0.7,2,1,3.3,1c1,0,1.8-0.2,2.6-0.5c0.8-0.3,1.5-0.9,2.4-1.6l3.3,2.9c-1,1.2-2.1,2.1-3.5,2.8
		C398.5,95.8,396.9,96.2,395,96.2z M398.8,83.9c-0.2-1.3-0.6-2.3-1.4-3.1c-0.7-0.8-1.7-1.2-2.9-1.2s-2.2,0.4-2.9,1.2
		c-0.7,0.8-1.2,1.8-1.5,3.2H398.8z"/>
	<path class="st10" d="M418.3,96.2c-1.5,0-2.9-0.3-4.2-0.8c-1.3-0.6-2.4-1.3-3.4-2.3c-0.9-1-1.7-2.1-2.2-3.3
		c-0.5-1.3-0.8-2.6-0.8-4.1v-0.1c0-1.4,0.3-2.8,0.8-4.1c0.5-1.3,1.3-2.4,2.2-3.4c0.9-1,2.1-1.7,3.4-2.3c1.3-0.6,2.7-0.8,4.3-0.8
		c1.9,0,3.5,0.3,4.8,0.9c1.3,0.6,2.4,1.4,3.3,2.5l-3.5,3.8c-0.7-0.7-1.3-1.2-2-1.6c-0.7-0.4-1.6-0.6-2.6-0.6c-0.7,0-1.4,0.1-2,0.4
		c-0.6,0.3-1.1,0.7-1.6,1.2c-0.4,0.5-0.8,1.1-1,1.8c-0.2,0.7-0.4,1.4-0.4,2.1v0.1c0,0.8,0.1,1.5,0.4,2.2c0.2,0.7,0.6,1.3,1,1.8
		c0.5,0.5,1,0.9,1.6,1.2c0.6,0.3,1.3,0.4,2.1,0.4c1,0,1.8-0.2,2.5-0.6c0.7-0.4,1.4-0.9,2.1-1.6l3.4,3.4c-1,1.1-2.1,2-3.4,2.7
		C422,95.8,420.3,96.2,418.3,96.2z"/>
	<path class="st10" d="M437.2,96.1c-2.2,0-3.9-0.7-5.1-2c-1.2-1.3-1.8-3.2-1.8-5.6V75.3h5.8v11.3c0,1.4,0.3,2.4,0.9,3.1
		c0.6,0.7,1.5,1,2.6,1c1.1,0,2-0.3,2.6-1c0.6-0.7,1-1.7,1-3.1V75.3h5.8v20.4h-5.8v-2.9c-0.3,0.4-0.7,0.8-1.1,1.2
		c-0.4,0.4-0.8,0.7-1.3,1.1c-0.5,0.3-1,0.5-1.6,0.7C438.6,96,437.9,96.1,437.2,96.1z"/>
	<path class="st10" d="M454.1,75.3h5.8v2.9c0.7-1,1.6-1.8,2.6-2.4c1-0.6,2.3-0.9,3.8-0.9c1.2,0,2.3,0.2,3.5,0.7c1.1,0.5,2.1,1.1,3,2
		c0.9,0.9,1.6,2,2.1,3.3c0.5,1.3,0.8,2.8,0.8,4.5v0.1c0,1.7-0.3,3.2-0.8,4.5c-0.5,1.3-1.2,2.4-2.1,3.3c-0.9,0.9-1.8,1.6-2.9,2
		c-1.1,0.5-2.3,0.7-3.5,0.7c-1.5,0-2.8-0.3-3.8-0.9c-1-0.6-1.8-1.3-2.5-2.1v8.7h-5.8V75.3z M464.7,91.2c0.7,0,1.3-0.1,1.9-0.4
		c0.6-0.3,1.1-0.6,1.6-1.1c0.5-0.5,0.8-1.1,1.1-1.8c0.3-0.7,0.4-1.5,0.4-2.3v-0.1c0-0.8-0.1-1.6-0.4-2.3c-0.3-0.7-0.6-1.3-1.1-1.8
		c-0.5-0.5-1-0.9-1.6-1.1c-0.6-0.3-1.2-0.4-1.9-0.4c-0.7,0-1.3,0.1-1.9,0.4c-0.6,0.3-1.1,0.6-1.6,1.1c-0.4,0.5-0.8,1.1-1.1,1.8
		c-0.3,0.7-0.4,1.5-0.4,2.3v0.1c0,0.8,0.1,1.6,0.4,2.3c0.3,0.7,0.6,1.3,1.1,1.8c0.4,0.5,1,0.9,1.6,1.1
		C463.4,91.1,464.1,91.2,464.7,91.2z"/>
	<path class="st10" d="M489.4,96.2c-1.5,0-2.9-0.3-4.2-0.8c-1.3-0.5-2.4-1.2-3.4-2.2c-1-0.9-1.7-2-2.2-3.3c-0.5-1.3-0.8-2.7-0.8-4.3
		v-0.1c0-1.4,0.2-2.8,0.7-4.1c0.5-1.3,1.2-2.4,2.1-3.4c0.9-1,1.9-1.7,3.2-2.3c1.2-0.6,2.6-0.8,4.1-0.8c1.7,0,3.2,0.3,4.4,0.9
		c1.2,0.6,2.3,1.4,3.1,2.5c0.8,1,1.4,2.2,1.8,3.5c0.4,1.3,0.6,2.7,0.6,4.2c0,0.2,0,0.5,0,0.7c0,0.3,0,0.5-0.1,0.8h-14.2
		c0.3,1.3,0.9,2.3,1.7,3c0.9,0.7,2,1,3.3,1c1,0,1.8-0.2,2.6-0.5c0.8-0.3,1.5-0.9,2.4-1.6l3.3,2.9c-1,1.2-2.1,2.1-3.5,2.8
		C492.9,95.8,491.3,96.2,489.4,96.2z M493.1,83.9c-0.2-1.3-0.6-2.3-1.4-3.1c-0.7-0.8-1.7-1.2-2.9-1.2c-1.2,0-2.2,0.4-2.9,1.2
		c-0.7,0.8-1.2,1.8-1.5,3.2H493.1z"/>
	<path class="st10" d="M503.1,75.3h5.8v4.1c0.6-1.4,1.4-2.5,2.4-3.3c1-0.8,2.4-1.2,4.1-1.1v6H515c-1.9,0-3.4,0.6-4.5,1.7
		c-1.1,1.2-1.7,3-1.7,5.4v7.5h-5.8V75.3z"/>
	<path class="st10" d="M524.7,96.1c-1,0-1.9-0.1-2.7-0.4c-0.9-0.3-1.6-0.7-2.2-1.2c-0.6-0.5-1.1-1.2-1.5-2c-0.4-0.8-0.6-1.7-0.6-2.7
		v-0.1c0-1.1,0.2-2.1,0.6-2.9c0.4-0.8,1-1.5,1.7-2c0.7-0.5,1.6-0.9,2.6-1.2c1-0.3,2.1-0.4,3.3-0.4c1,0,1.9,0.1,2.7,0.2
		c0.8,0.2,1.5,0.4,2.3,0.6v-0.3c0-1.2-0.4-2.1-1.1-2.8s-1.8-1-3.3-1c-1.1,0-2.1,0.1-2.9,0.3c-0.9,0.2-1.7,0.5-2.7,0.8l-1.4-4.4
		c1.1-0.5,2.3-0.9,3.5-1.2c1.2-0.3,2.7-0.5,4.4-0.5c1.6,0,3,0.2,4.1,0.6c1.1,0.4,2.1,1,2.8,1.7c0.8,0.8,1.3,1.7,1.7,2.8
		c0.4,1.1,0.5,2.3,0.5,3.7v11.8h-5.6v-2.2c-0.7,0.8-1.6,1.4-2.5,1.9C527.4,95.9,526.2,96.1,524.7,96.1z M526.5,92.1
		c1.4,0,2.5-0.3,3.3-1c0.8-0.7,1.2-1.5,1.2-2.6v-1c-0.5-0.2-1.1-0.4-1.7-0.6c-0.6-0.1-1.3-0.2-2-0.2c-1.2,0-2.2,0.2-2.9,0.7
		c-0.7,0.5-1.1,1.2-1.1,2.1v0.1c0,0.8,0.3,1.4,0.9,1.8C524.8,91.9,525.6,92.1,526.5,92.1z"/>
	<path class="st10" d="M551.1,96.2c-1.5,0-2.9-0.3-4.2-0.8c-1.3-0.6-2.4-1.3-3.4-2.3c-0.9-1-1.7-2.1-2.2-3.3
		c-0.5-1.3-0.8-2.6-0.8-4.1v-0.1c0-1.4,0.3-2.8,0.8-4.1c0.5-1.3,1.3-2.4,2.2-3.4c0.9-1,2.1-1.7,3.4-2.3c1.3-0.6,2.7-0.8,4.3-0.8
		c1.9,0,3.5,0.3,4.8,0.9c1.3,0.6,2.4,1.4,3.3,2.5l-3.5,3.8c-0.7-0.7-1.3-1.2-2-1.6c-0.7-0.4-1.6-0.6-2.6-0.6c-0.7,0-1.4,0.1-2,0.4
		c-0.6,0.3-1.1,0.7-1.6,1.2c-0.4,0.5-0.8,1.1-1,1.8c-0.2,0.7-0.4,1.4-0.4,2.1v0.1c0,0.8,0.1,1.5,0.4,2.2c0.2,0.7,0.6,1.3,1,1.8
		c0.5,0.5,1,0.9,1.6,1.2c0.6,0.3,1.3,0.4,2.1,0.4c1,0,1.8-0.2,2.5-0.6c0.7-0.4,1.4-0.9,2.1-1.6l3.4,3.4c-1,1.1-2.1,2-3.4,2.7
		C554.8,95.8,553.1,96.2,551.1,96.2z"/>
	<path class="st10" d="M563.3,68h6.1v5.1h-6.1V68z M563.5,75.3h5.8v20.4h-5.8V75.3z"/>
	<path class="st10" d="M584.7,96.2c-1.6,0-3-0.3-4.4-0.8c-1.3-0.5-2.5-1.3-3.5-2.2c-1-1-1.7-2.1-2.3-3.3c-0.6-1.3-0.8-2.7-0.8-4.1
		v-0.1c0-1.5,0.3-2.8,0.8-4.1c0.6-1.3,1.3-2.4,2.3-3.4c1-1,2.2-1.7,3.5-2.3c1.3-0.6,2.8-0.8,4.4-0.8c1.6,0,3,0.3,4.4,0.8
		c1.3,0.5,2.5,1.3,3.5,2.2c1,1,1.7,2.1,2.3,3.3c0.6,1.3,0.8,2.7,0.8,4.1v0.1c0,1.5-0.3,2.8-0.8,4.1c-0.6,1.3-1.3,2.4-2.3,3.4
		c-1,1-2.2,1.7-3.5,2.3C587.7,95.9,586.3,96.2,584.7,96.2z M584.8,91.2c0.8,0,1.6-0.1,2.2-0.4c0.6-0.3,1.2-0.7,1.7-1.2
		c0.5-0.5,0.8-1.1,1-1.8c0.2-0.7,0.4-1.4,0.4-2.1v-0.1c0-0.8-0.1-1.5-0.4-2.1c-0.3-0.7-0.6-1.3-1.1-1.8c-0.5-0.5-1.1-0.9-1.7-1.2
		c-0.7-0.3-1.4-0.5-2.2-0.5c-0.8,0-1.6,0.1-2.2,0.4c-0.6,0.3-1.2,0.7-1.7,1.2c-0.5,0.5-0.8,1.1-1,1.8c-0.2,0.7-0.4,1.4-0.4,2.1v0.1
		c0,0.8,0.1,1.5,0.4,2.1c0.3,0.7,0.6,1.3,1.1,1.8c0.5,0.5,1,0.9,1.7,1.2C583.2,91,583.9,91.2,584.8,91.2z M586.8,66.4l5,2.2
		l-4.9,4.6h-4.4L586.8,66.4z"/>
	<path class="st10" d="M599.9,75.3h5.8v2.9c0.3-0.4,0.7-0.8,1.1-1.2c0.4-0.4,0.8-0.7,1.3-1.1c0.5-0.3,1-0.5,1.6-0.7
		c0.6-0.2,1.2-0.3,2-0.3c2.2,0,3.9,0.7,5.1,2c1.2,1.3,1.8,3.2,1.8,5.6v13.2h-5.8V84.4c0-1.4-0.3-2.4-0.9-3.1c-0.6-0.7-1.5-1-2.6-1
		c-1.1,0-2,0.3-2.6,1c-0.6,0.7-1,1.7-1,3.1v11.3h-5.8V75.3z"/>
	<path class="st10" d="M622,99.5c2.7-0.3,3.9-1.5,3.7-3.8h-2.3v-6.1h6.1v5.1c0,2.5-0.6,4.3-1.8,5.4c-1.2,1.1-2.9,1.7-5.2,1.7
		L622,99.5z"/>
	<path class="st10" d="M209.5,118.1h-8.1v-5.4h22.1v5.4h-8.1v21.2h-5.9V118.1z"/>
	<path class="st10" d="M227.3,118.9h5.8v4.1c0.6-1.4,1.4-2.5,2.4-3.3c1-0.8,2.4-1.2,4.1-1.1v6h-0.3c-1.9,0-3.4,0.6-4.5,1.7
		c-1.1,1.2-1.7,3-1.7,5.4v7.5h-5.8V118.9z"/>
	<path class="st10" d="M249,139.7c-1,0-1.9-0.1-2.7-0.4c-0.8-0.3-1.6-0.7-2.2-1.2c-0.6-0.5-1.1-1.2-1.5-2s-0.6-1.7-0.6-2.7v-0.1
		c0-1.1,0.2-2.1,0.6-2.9c0.4-0.8,1-1.5,1.7-2c0.7-0.5,1.6-0.9,2.6-1.2c1-0.3,2.1-0.4,3.3-0.4c1,0,1.9,0.1,2.7,0.2
		c0.8,0.2,1.5,0.4,2.3,0.6v-0.3c0-1.2-0.4-2.1-1.1-2.8c-0.7-0.6-1.8-1-3.3-1c-1.1,0-2.1,0.1-2.9,0.3c-0.8,0.2-1.7,0.5-2.7,0.8
		l-1.4-4.4c1.1-0.5,2.3-0.9,3.5-1.2c1.2-0.3,2.7-0.5,4.4-0.5c1.6,0,3,0.2,4.1,0.6c1.1,0.4,2.1,1,2.8,1.7c0.8,0.8,1.3,1.7,1.7,2.8
		c0.4,1.1,0.5,2.3,0.5,3.7v11.8h-5.6v-2.2c-0.7,0.8-1.6,1.4-2.5,1.9C251.6,139.4,250.4,139.7,249,139.7z M250.7,135.7
		c1.4,0,2.5-0.3,3.3-1c0.8-0.7,1.2-1.5,1.2-2.6v-1c-0.5-0.2-1.1-0.4-1.7-0.6c-0.6-0.1-1.3-0.2-2-0.2c-1.2,0-2.2,0.2-2.9,0.7
		c-0.7,0.5-1.1,1.2-1.1,2.1v0.1c0,0.8,0.3,1.4,0.9,1.8C249,135.5,249.8,135.7,250.7,135.7z"/>
	<path class="st10" d="M265.7,118.9h5.8v2.9c0.3-0.4,0.7-0.8,1.1-1.2c0.4-0.4,0.8-0.7,1.3-1.1c0.5-0.3,1-0.5,1.6-0.7
		c0.6-0.2,1.2-0.3,2-0.3c2.2,0,3.9,0.7,5.1,2c1.2,1.3,1.8,3.2,1.8,5.6v13.2h-5.8V128c0-1.4-0.3-2.4-0.9-3.1s-1.5-1-2.6-1
		s-2,0.3-2.6,1s-1,1.7-1,3.1v11.3h-5.8V118.9z"/>
	<path class="st10" d="M296.5,139.7c-1.4,0-2.9-0.2-4.4-0.7c-1.5-0.5-2.9-1.3-4.3-2.3l2.5-3.8c1.1,0.8,2.2,1.4,3.3,1.8
		c1.1,0.4,2.1,0.6,3.1,0.6c0.8,0,1.5-0.1,1.8-0.4s0.6-0.6,0.6-1.1v-0.1c0-0.3-0.1-0.6-0.3-0.8c-0.2-0.2-0.5-0.4-0.9-0.6
		s-0.8-0.3-1.3-0.5c-0.5-0.2-1-0.3-1.6-0.5c-0.7-0.2-1.4-0.4-2.1-0.7c-0.7-0.3-1.4-0.7-2-1.1c-0.6-0.5-1.1-1-1.4-1.7
		c-0.4-0.7-0.6-1.5-0.6-2.5v-0.1c0-1,0.2-2,0.6-2.8c0.4-0.8,0.9-1.5,1.6-2c0.7-0.6,1.5-1,2.4-1.3c0.9-0.3,1.9-0.4,2.9-0.4
		c1.3,0,2.6,0.2,3.9,0.6c1.3,0.4,2.6,1,3.7,1.7l-2.2,4c-1-0.6-2-1-3-1.4c-1-0.3-1.8-0.5-2.5-0.5c-0.7,0-1.2,0.1-1.6,0.4
		c-0.4,0.3-0.5,0.6-0.5,1v0.1c0,0.3,0.1,0.5,0.3,0.7c0.2,0.2,0.5,0.4,0.9,0.6c0.4,0.2,0.8,0.4,1.3,0.6c0.5,0.2,1,0.4,1.6,0.5
		c0.7,0.2,1.4,0.5,2.2,0.8c0.7,0.3,1.4,0.7,2,1.2c0.6,0.5,1.1,1,1.4,1.7c0.4,0.7,0.6,1.5,0.6,2.4v0.1c0,1.1-0.2,2.1-0.6,2.9
		s-0.9,1.5-1.7,2s-1.5,0.9-2.5,1.2C298.7,139.5,297.6,139.7,296.5,139.7z"/>
	<path class="st10" d="M309.5,123.9h-2.4v-4.8h2.4v-1.3c0-2.2,0.5-3.9,1.6-4.9c1.1-1.1,2.6-1.6,4.7-1.6c0.9,0,1.7,0.1,2.3,0.2
		c0.6,0.1,1.2,0.2,1.8,0.4v4.8c-0.4-0.2-0.8-0.3-1.3-0.4c-0.4-0.1-0.9-0.1-1.4-0.1c-1.4,0-2.1,0.7-2.1,2.2v0.8h4.7v4.7h-4.6v15.4
		h-5.8V123.9z"/>
	<path class="st10" d="M333,139.8c-1.6,0-3-0.3-4.4-0.8c-1.3-0.5-2.5-1.3-3.5-2.2c-1-1-1.7-2.1-2.3-3.3c-0.6-1.3-0.8-2.7-0.8-4.1
		v-0.1c0-1.5,0.3-2.8,0.8-4.1c0.6-1.3,1.3-2.4,2.3-3.4c1-1,2.2-1.7,3.5-2.3c1.3-0.6,2.8-0.8,4.4-0.8c1.6,0,3,0.3,4.4,0.8
		c1.3,0.5,2.5,1.3,3.5,2.2c1,1,1.7,2.1,2.3,3.3c0.6,1.3,0.8,2.7,0.8,4.1v0.1c0,1.5-0.3,2.8-0.8,4.1c-0.6,1.3-1.3,2.4-2.3,3.4
		c-1,1-2.2,1.7-3.5,2.3C336.1,139.5,334.6,139.8,333,139.8z M333.1,134.8c0.8,0,1.6-0.1,2.2-0.4c0.6-0.3,1.2-0.7,1.7-1.2
		c0.5-0.5,0.8-1.1,1-1.8c0.2-0.7,0.4-1.4,0.4-2.1v-0.1c0-0.8-0.1-1.5-0.4-2.1c-0.3-0.7-0.6-1.3-1.1-1.8c-0.5-0.5-1.1-0.9-1.7-1.2
		c-0.7-0.3-1.4-0.5-2.2-0.5c-0.8,0-1.6,0.1-2.2,0.4c-0.6,0.3-1.2,0.7-1.7,1.2c-0.5,0.5-0.8,1.1-1,1.8c-0.2,0.7-0.4,1.4-0.4,2.1v0.1
		c0,0.8,0.1,1.5,0.4,2.1c0.3,0.7,0.6,1.3,1.1,1.8c0.5,0.5,1,0.9,1.7,1.2C331.5,134.6,332.3,134.8,333.1,134.8z"/>
	<path class="st10" d="M348.3,118.9h5.8v4.1c0.6-1.4,1.4-2.5,2.4-3.3c1-0.8,2.4-1.2,4.1-1.1v6h-0.3c-1.9,0-3.4,0.6-4.5,1.7
		c-1.1,1.2-1.7,3-1.7,5.4v7.5h-5.8V118.9z"/>
	<path class="st10" d="M364.2,118.9h5.8v2.9c0.3-0.4,0.7-0.8,1.1-1.2c0.4-0.4,0.8-0.7,1.3-1.1c0.5-0.3,1-0.5,1.6-0.7
		c0.6-0.2,1.3-0.3,2-0.3c1.3,0,2.5,0.3,3.5,0.8c1,0.6,1.7,1.4,2.3,2.4c0.9-1.1,1.9-1.9,3-2.4c1.1-0.5,2.3-0.8,3.7-0.8
		c2.2,0,3.8,0.6,5.1,1.9c1.2,1.3,1.8,3.1,1.8,5.6v13.3h-5.8V128c0-1.4-0.3-2.4-0.9-3.1c-0.6-0.7-1.4-1-2.5-1c-1.1,0-1.9,0.3-2.6,1
		c-0.6,0.7-0.9,1.7-0.9,3.1v11.3h-5.8V128c0-1.4-0.3-2.4-0.9-3.1c-0.6-0.7-1.4-1-2.5-1c-1.1,0-1.9,0.3-2.6,1
		c-0.6,0.7-0.9,1.7-0.9,3.1v11.3h-5.8V118.9z"/>
	<path class="st10" d="M406.1,139.7c-1,0-1.9-0.1-2.7-0.4c-0.8-0.3-1.6-0.7-2.2-1.2c-0.6-0.5-1.1-1.2-1.5-2s-0.6-1.7-0.6-2.7v-0.1
		c0-1.1,0.2-2.1,0.6-2.9c0.4-0.8,1-1.5,1.7-2c0.7-0.5,1.6-0.9,2.6-1.2c1-0.3,2.1-0.4,3.3-0.4c1,0,1.9,0.1,2.7,0.2
		c0.8,0.2,1.5,0.4,2.3,0.6v-0.3c0-1.2-0.4-2.1-1.1-2.8c-0.7-0.6-1.8-1-3.3-1c-1.1,0-2.1,0.1-2.9,0.3c-0.8,0.2-1.7,0.5-2.7,0.8
		l-1.4-4.4c1.1-0.5,2.3-0.9,3.5-1.2c1.2-0.3,2.7-0.5,4.4-0.5c1.6,0,3,0.2,4.1,0.6c1.1,0.4,2.1,1,2.8,1.7c0.8,0.8,1.3,1.7,1.7,2.8
		c0.4,1.1,0.5,2.3,0.5,3.7v11.8h-5.6v-2.2c-0.7,0.8-1.6,1.4-2.5,1.9C408.7,139.4,407.5,139.7,406.1,139.7z M407.8,135.7
		c1.4,0,2.5-0.3,3.3-1c0.8-0.7,1.2-1.5,1.2-2.6v-1c-0.5-0.2-1.1-0.4-1.7-0.6c-0.6-0.1-1.3-0.2-2-0.2c-1.2,0-2.2,0.2-2.9,0.7
		c-0.7,0.5-1.1,1.2-1.1,2.1v0.1c0,0.8,0.3,1.4,0.9,1.8C406.1,135.5,406.9,135.7,407.8,135.7z"/>
	<path class="st10" d="M432.4,139.8c-1.5,0-2.9-0.3-4.2-0.8c-1.3-0.6-2.4-1.3-3.4-2.3c-0.9-1-1.7-2.1-2.2-3.3
		c-0.5-1.3-0.8-2.6-0.8-4.1v-0.1c0-1.4,0.3-2.8,0.8-4.1c0.5-1.3,1.3-2.4,2.2-3.4c0.9-1,2.1-1.7,3.4-2.3c1.3-0.6,2.7-0.8,4.3-0.8
		c1.9,0,3.5,0.3,4.8,0.9c1.3,0.6,2.4,1.4,3.3,2.5l-3.5,3.8c-0.7-0.7-1.3-1.2-2-1.6c-0.7-0.4-1.6-0.6-2.6-0.6c-0.7,0-1.4,0.1-2,0.4
		c-0.6,0.3-1.1,0.7-1.6,1.2c-0.4,0.5-0.8,1.1-1,1.8c-0.2,0.7-0.4,1.4-0.4,2.1v0.1c0,0.8,0.1,1.5,0.4,2.2c0.2,0.7,0.6,1.3,1,1.8
		c0.5,0.5,1,0.9,1.6,1.2c0.6,0.3,1.3,0.4,2.1,0.4c1,0,1.8-0.2,2.5-0.6c0.7-0.4,1.4-0.9,2.1-1.6l3.4,3.4c-1,1.1-2.1,2-3.4,2.7
		C436.1,139.4,434.4,139.8,432.4,139.8z"/>
	<path class="st10" d="M444.6,111.5h6.1v5.1h-6.1V111.5z M444.8,118.9h5.8v20.4h-5.8V118.9z"/>
	<path class="st10" d="M466,139.8c-1.6,0-3-0.3-4.4-0.8c-1.3-0.5-2.5-1.3-3.5-2.2c-1-1-1.7-2.1-2.3-3.3c-0.6-1.3-0.8-2.7-0.8-4.1
		v-0.1c0-1.5,0.3-2.8,0.8-4.1c0.6-1.3,1.3-2.4,2.3-3.4c1-1,2.2-1.7,3.5-2.3c1.3-0.6,2.8-0.8,4.4-0.8c1.6,0,3,0.3,4.4,0.8
		c1.3,0.5,2.5,1.3,3.5,2.2c1,1,1.7,2.1,2.3,3.3c0.6,1.3,0.8,2.7,0.8,4.1v0.1c0,1.5-0.3,2.8-0.8,4.1c-0.6,1.3-1.3,2.4-2.3,3.4
		c-1,1-2.2,1.7-3.5,2.3C469.1,139.5,467.6,139.8,466,139.8z M466.1,134.8c0.8,0,1.6-0.1,2.2-0.4c0.6-0.3,1.2-0.7,1.7-1.2
		c0.5-0.5,0.8-1.1,1-1.8c0.2-0.7,0.4-1.4,0.4-2.1v-0.1c0-0.8-0.1-1.5-0.4-2.1c-0.3-0.7-0.6-1.3-1.1-1.8c-0.5-0.5-1.1-0.9-1.7-1.2
		c-0.7-0.3-1.4-0.5-2.2-0.5c-0.8,0-1.6,0.1-2.2,0.4c-0.6,0.3-1.2,0.7-1.7,1.2c-0.5,0.5-0.8,1.1-1,1.8c-0.2,0.7-0.4,1.4-0.4,2.1v0.1
		c0,0.8,0.1,1.5,0.4,2.1c0.3,0.7,0.6,1.3,1.1,1.8c0.5,0.5,1,0.9,1.7,1.2C464.5,134.6,465.3,134.8,466.1,134.8z M468.1,109.9l5,2.2
		l-4.9,4.6h-4.4L468.1,109.9z"/>
	<path class="st10" d="M481.2,118.9h5.8v2.9c0.3-0.4,0.7-0.8,1.1-1.2c0.4-0.4,0.8-0.7,1.3-1.1c0.5-0.3,1-0.5,1.6-0.7
		c0.6-0.2,1.2-0.3,2-0.3c2.2,0,3.9,0.7,5.1,2s1.8,3.2,1.8,5.6v13.2h-5.8V128c0-1.4-0.3-2.4-0.9-3.1c-0.6-0.7-1.5-1-2.6-1
		s-2,0.3-2.6,1s-1,1.7-1,3.1v11.3h-5.8V118.9z"/>
	<path class="st10" d="M521.2,145.5c-1.1,0-2-0.1-2.8-0.4c-0.8-0.3-1.6-0.6-2.3-1l1.9-4.2c0.4,0.2,0.8,0.4,1.2,0.6
		c0.4,0.2,0.9,0.2,1.2,0.2c0.5,0,0.9-0.1,1.2-0.3c0.3-0.2,0.6-0.5,0.8-1l-8-20.5h6.1l4.6,13.9l4.4-13.9h6l-7.8,20.9
		c-0.4,1-0.8,1.9-1.2,2.6c-0.4,0.7-0.9,1.3-1.4,1.8c-0.5,0.5-1.1,0.8-1.8,1C522.8,145.4,522.1,145.5,521.2,145.5z"/>
	<path class="st10" d="M551.2,112.7h12.2c3.4,0,6,0.9,7.8,2.7c1.5,1.5,2.3,3.5,2.3,6.1v0.1c0,2.2-0.5,3.9-1.6,5.3
		c-1.1,1.4-2.4,2.4-4.1,3l6.5,9.5h-6.8l-5.7-8.5h-0.1H557v8.5h-5.9V112.7z M563,125.6c1.4,0,2.6-0.3,3.3-1c0.8-0.7,1.2-1.6,1.2-2.7
		v-0.1c0-1.3-0.4-2.2-1.2-2.9c-0.8-0.6-1.9-1-3.4-1H557v7.6H563z"/>
	<path class="st10" d="M587.7,139.8c-1.5,0-2.9-0.3-4.2-0.8c-1.3-0.5-2.4-1.2-3.4-2.2c-1-0.9-1.7-2-2.2-3.3
		c-0.5-1.3-0.8-2.7-0.8-4.3v-0.1c0-1.4,0.2-2.8,0.7-4.1c0.5-1.3,1.2-2.4,2.1-3.4c0.9-1,1.9-1.7,3.2-2.3c1.2-0.6,2.6-0.8,4.1-0.8
		c1.7,0,3.2,0.3,4.4,0.9c1.2,0.6,2.3,1.4,3.1,2.5c0.8,1,1.4,2.2,1.8,3.5c0.4,1.3,0.6,2.7,0.6,4.2c0,0.2,0,0.5,0,0.7
		c0,0.3,0,0.5-0.1,0.8h-14.2c0.3,1.3,0.9,2.3,1.7,3c0.9,0.7,2,1,3.3,1c1,0,1.8-0.2,2.6-0.5c0.8-0.3,1.5-0.9,2.4-1.6l3.3,2.9
		c-1,1.2-2.1,2.1-3.5,2.8C591.2,139.4,589.6,139.8,587.7,139.8z M591.4,127.5c-0.2-1.3-0.6-2.3-1.4-3.1c-0.7-0.8-1.7-1.2-2.9-1.2
		s-2.2,0.4-2.9,1.2c-0.7,0.8-1.2,1.8-1.5,3.2H591.4z"/>
	<path class="st10" d="M608.5,139.7c-1.4,0-2.9-0.2-4.4-0.7c-1.5-0.5-2.9-1.3-4.3-2.3l2.5-3.8c1.1,0.8,2.2,1.4,3.3,1.8
		c1.1,0.4,2.1,0.6,3.1,0.6c0.8,0,1.5-0.1,1.8-0.4c0.4-0.3,0.6-0.6,0.6-1.1v-0.1c0-0.3-0.1-0.6-0.3-0.8c-0.2-0.2-0.5-0.4-0.9-0.6
		c-0.4-0.2-0.8-0.3-1.4-0.5c-0.5-0.2-1-0.3-1.6-0.5c-0.7-0.2-1.4-0.4-2.1-0.7c-0.7-0.3-1.4-0.7-2-1.1c-0.6-0.5-1.1-1-1.4-1.7
		c-0.4-0.7-0.6-1.5-0.6-2.5v-0.1c0-1,0.2-2,0.6-2.8c0.4-0.8,0.9-1.5,1.6-2c0.7-0.6,1.5-1,2.4-1.3c0.9-0.3,1.9-0.4,2.9-0.4
		c1.3,0,2.6,0.2,3.9,0.6c1.3,0.4,2.6,1,3.7,1.7l-2.2,4c-1-0.6-2-1-3-1.4c-1-0.3-1.8-0.5-2.5-0.5c-0.7,0-1.2,0.1-1.6,0.4
		c-0.4,0.3-0.5,0.6-0.5,1v0.1c0,0.3,0.1,0.5,0.3,0.7c0.2,0.2,0.5,0.4,0.9,0.6c0.4,0.2,0.8,0.4,1.3,0.6s1,0.4,1.6,0.5
		c0.7,0.2,1.4,0.5,2.2,0.8c0.7,0.3,1.4,0.7,2,1.2c0.6,0.5,1.1,1,1.4,1.7c0.4,0.7,0.6,1.5,0.6,2.4v0.1c0,1.1-0.2,2.1-0.6,2.9
		c-0.4,0.8-0.9,1.5-1.7,2c-0.7,0.5-1.5,0.9-2.5,1.2C610.6,139.5,609.6,139.7,608.5,139.7z"/>
	<path class="st10" d="M620.6,111.5h6.1v5.1h-6.1V111.5z M620.7,118.9h5.8v20.4h-5.8V118.9z"/>
	<path class="st10" d="M632.2,111.5h5.8v27.8h-5.8V111.5z"/>
	<path class="st10" d="M643.5,111.5h6.1v5.1h-6.1V111.5z M643.7,118.9h5.8v20.4h-5.8V118.9z"/>
	<path class="st10" d="M664.6,139.8c-1.5,0-2.9-0.3-4.2-0.8c-1.3-0.5-2.4-1.2-3.4-2.2c-1-0.9-1.7-2-2.2-3.3
		c-0.5-1.3-0.8-2.7-0.8-4.3v-0.1c0-1.4,0.2-2.8,0.7-4.1c0.5-1.3,1.2-2.4,2.1-3.4c0.9-1,1.9-1.7,3.2-2.3c1.2-0.6,2.6-0.8,4.1-0.8
		c1.7,0,3.2,0.3,4.4,0.9c1.2,0.6,2.3,1.4,3.1,2.5c0.8,1,1.4,2.2,1.8,3.5c0.4,1.3,0.6,2.7,0.6,4.2c0,0.2,0,0.5,0,0.7
		c0,0.3,0,0.5-0.1,0.8h-14.2c0.3,1.3,0.9,2.3,1.7,3c0.9,0.7,2,1,3.3,1c1,0,1.8-0.2,2.6-0.5c0.8-0.3,1.5-0.9,2.4-1.6l3.3,2.9
		c-1,1.2-2.1,2.1-3.5,2.8C668,139.4,666.4,139.8,664.6,139.8z M668.3,127.5c-0.2-1.3-0.6-2.3-1.4-3.1c-0.7-0.8-1.7-1.2-2.9-1.2
		s-2.2,0.4-2.9,1.2c-0.7,0.8-1.2,1.8-1.5,3.2H668.3z"/>
	<path class="st10" d="M678.2,118.9h5.8v2.9c0.3-0.4,0.7-0.8,1.1-1.2c0.4-0.4,0.8-0.7,1.3-1.1c0.5-0.3,1-0.5,1.6-0.7
		c0.6-0.2,1.2-0.3,2-0.3c2.2,0,3.9,0.7,5.1,2c1.2,1.3,1.8,3.2,1.8,5.6v13.2h-5.8V128c0-1.4-0.3-2.4-0.9-3.1c-0.6-0.7-1.5-1-2.6-1
		c-1.1,0-2,0.3-2.6,1c-0.6,0.7-1,1.7-1,3.1v11.3h-5.8V118.9z"/>
	<path class="st10" d="M711.5,139.8c-1.5,0-2.9-0.3-4.2-0.8c-1.3-0.6-2.4-1.3-3.4-2.3c-0.9-1-1.7-2.1-2.2-3.3
		c-0.5-1.3-0.8-2.6-0.8-4.1v-0.1c0-1.4,0.3-2.8,0.8-4.1c0.5-1.3,1.3-2.4,2.2-3.4c0.9-1,2.1-1.7,3.4-2.3c1.3-0.6,2.7-0.8,4.3-0.8
		c1.9,0,3.5,0.3,4.8,0.9c1.3,0.6,2.4,1.4,3.3,2.5l-3.5,3.8c-0.7-0.7-1.3-1.2-2-1.6c-0.7-0.4-1.6-0.6-2.6-0.6c-0.7,0-1.4,0.1-2,0.4
		c-0.6,0.3-1.1,0.7-1.6,1.2c-0.4,0.5-0.8,1.1-1,1.8c-0.2,0.7-0.4,1.4-0.4,2.1v0.1c0,0.8,0.1,1.5,0.4,2.2c0.2,0.7,0.6,1.3,1,1.8
		c0.5,0.5,1,0.9,1.6,1.2c0.6,0.3,1.3,0.4,2.1,0.4c1,0,1.8-0.2,2.5-0.6c0.7-0.4,1.4-0.9,2.1-1.6l3.4,3.4c-1,1.1-2.1,2-3.4,2.7
		C715.2,139.4,713.5,139.8,711.5,139.8z"/>
	<path class="st10" d="M723.7,111.5h6.1v5.1h-6.1V111.5z M723.9,118.9h5.8v20.4h-5.8V118.9z"/>
	<path class="st10" d="M740.9,139.7c-1,0-1.9-0.1-2.7-0.4c-0.9-0.3-1.6-0.7-2.2-1.2c-0.6-0.5-1.1-1.2-1.5-2
		c-0.4-0.8-0.6-1.7-0.6-2.7v-0.1c0-1.1,0.2-2.1,0.6-2.9c0.4-0.8,1-1.5,1.7-2c0.7-0.5,1.6-0.9,2.6-1.2c1-0.3,2.1-0.4,3.3-0.4
		c1,0,1.9,0.1,2.7,0.2c0.8,0.2,1.5,0.4,2.3,0.6v-0.3c0-1.2-0.4-2.1-1.1-2.8c-0.7-0.6-1.8-1-3.3-1c-1.1,0-2.1,0.1-2.9,0.3
		c-0.9,0.2-1.7,0.5-2.7,0.8l-1.4-4.4c1.1-0.5,2.3-0.9,3.5-1.2c1.2-0.3,2.7-0.5,4.4-0.5c1.6,0,3,0.2,4.1,0.6c1.1,0.4,2.1,1,2.8,1.7
		c0.8,0.8,1.3,1.7,1.7,2.8c0.4,1.1,0.5,2.3,0.5,3.7v11.8H747v-2.2c-0.7,0.8-1.6,1.4-2.5,1.9C743.5,139.4,742.3,139.7,740.9,139.7z
		 M742.6,135.7c1.4,0,2.5-0.3,3.3-1c0.8-0.7,1.2-1.5,1.2-2.6v-1c-0.5-0.2-1.1-0.4-1.7-0.6c-0.6-0.1-1.3-0.2-2-0.2
		c-1.2,0-2.2,0.2-2.9,0.7c-0.7,0.5-1.1,1.2-1.1,2.1v0.1c0,0.8,0.3,1.4,0.9,1.8C740.9,135.5,741.7,135.7,742.6,135.7z"/>
</g>
</svg>
