<svg xmlns="http://www.w3.org/2000/svg" width="271.941" height="64.1" viewBox="0 0 271.941 64.1"><g transform="translate(-324.501 -974.6)"><g transform="translate(364.276 974.6)"><path d="M660.595,1071.229l19.987.1a3.911,3.911,0,0,1,.077-.388H660.673Z" transform="translate(-547.208 -1027.035)" fill="#35a8e0"/><path d="M760.74,1071.45l2.7.013a3.927,3.927,0,0,1,.091-.525h-2.893A2.992,2.992,0,0,1,760.74,1071.45Z" transform="translate(-601.664 -1027.036)" fill="#35a8e0"/><path d="M717.726,1070.937l-.112.417,13.106.063-.258-.48Z" transform="translate(-578.244 -1027.036)" fill="#35a8e0"/><path d="M779.9,1071.492l3.885.019a4.012,4.012,0,0,1,.1-.573h-3.835Z" transform="translate(-612.147 -1027.036)" fill="#35a8e0"/><path d="M640.9,1071.185l2.967.015c.016-.087.033-.174.055-.262h-2.782C641.058,1071.02,640.979,1071.1,640.9,1071.185Z" transform="translate(-536.487 -1027.035)" fill="#35a8e0"/><path d="M801.505,1070.938l-.161.6,15.009.073-.34-.674Z" transform="translate(-623.817 -1027.036)" fill="#35a8e0"/><path d="M460.623,1010.1a5.275,5.275,0,0,1-2.123,2.3v2.547l5.642,0a10.7,10.7,0,0,0,2.406-4.817Zm25.283,10.249,2.279,5.077,8.007,0V1020.4Zm2.338,5.213,2.306,5.145h5.642V1025.6Zm18.365-10.636a24.763,24.763,0,0,0-3.655-4.685l-31.048-.1a15.738,15.738,0,0,1-1.486,4.8l6.043,0,.433-.966a3.135,3.135,0,0,1,2.976-2.01h.241a3.086,3.086,0,0,1,2.935,2.01l.433.966,12.71,0v-.319a2.472,2.472,0,0,1,4.944,0v.319Zm-5.473,15.932v7.392a2.472,2.472,0,0,1-4.944,0v-7.414l-5.6-.023,2.9,6.471a2.156,2.156,0,0,1,.282,1.043,2.321,2.321,0,0,1-2.333,2.374,2.544,2.544,0,0,1-2.411-1.732l-2.292-5.263H473.078l-2.37,5.427a2.387,2.387,0,0,1-2.292,1.568,2.268,2.268,0,0,1-2.292-2.292,2.551,2.551,0,0,1,.323-1.125l2.94-6.562-3.368-.014H469.4l2.343-5.227-9.2-.046,9.214,0,2.306-5.131-15.663-.068h15.69l2.324-5.181-6.029-.032s0,0,0,.009a16.2,16.2,0,0,1-3.053,4.215,2.658,2.658,0,0,1-3.733,0,2.6,2.6,0,0,1,0-3.7c.174-.173.337-.365.5-.547l.009-.009-5.6-.027v2.433a2.639,2.639,0,0,1-5.278,0V1012.4a5.249,5.249,0,1,1,7.921-4.53,5.143,5.143,0,0,1-.5,2.2l5.924,0a10.786,10.786,0,0,0-2.972-9.862,11.013,11.013,0,0,0-15.466,0c-3.4,3.377-3.933,9.479-1.941,14,0,0,0,0,0,.009,2.356,3.236,4.52,6.708,6.667,10.149,8.125,13.01,15.877,26.317,32.719,26.4h.055a24.83,24.83,0,0,0,23.948-19.869Zm11.32-5.446h-2.538a22.682,22.682,0,0,0-.871-4.963l-7.911-.032v5h8.781c.009.082.014.169.018.251l-8.8-.041v5.081h8.48a22.651,22.651,0,0,0,.346-3.915c0-.374-.009-.743-.027-1.112l2.292.014A2.813,2.813,0,0,1,512.456,1025.416Zm1.171,5.3h-4.011a.632.632,0,0,1-.027.128l4.2.018C513.736,1030.812,513.681,1030.757,513.627,1030.711Zm4.215-15.444c-.068-.114-.137-.223-.2-.342l-11.033,0,.164.273-5.641-.027v5.063h7.843a23.322,23.322,0,0,0-2.2-5.026Zm7.168,4.976-16.027,0c.014.064.036.123.055.187l16.611.078C525.43,1020.417,525.215,1020.33,525.01,1020.244Z" transform="translate(-429.877 -986.808)" fill="#35a8e0"/><path d="M848.6,1071.644l9.314.051a3.832,3.832,0,0,1,.112-.756h-9.237Z" transform="translate(-649.536 -1027.036)" fill="#35a8e0"/><path d="M602.262,1059.439c.056.061.113.117.169.176l13.946.069a3.377,3.377,0,0,0,.1-.382l-14.342.006C602.177,1059.352,602.221,1059.393,602.262,1059.439Z" transform="translate(-515.388 -1020.703)" fill="#35a8e0"/><path d="M851.613,1060.114l9.228.052.263-.975-9.245,0Z" transform="translate(-651.178 -1020.642)" fill="#35a8e0"/><path d="M729.243,1059.253l-8.448,0-.16.6,8.955.044Z" transform="translate(-579.888 -1020.676)" fill="#35a8e0"/><path d="M646.818,1059.71l1.636.008.114-.424h-1.691C646.862,1059.434,646.84,1059.572,646.818,1059.71Z" transform="translate(-539.71 -1020.698)" fill="#35a8e0"/><path d="M782.927,1059.981l3.833.019.208-.77-3.84,0Z" transform="translate(-613.792 -1020.663)" fill="#35a8e0"/><path d="M814.963,1059.213l-10.38,0-.215.8,11.03.054Z" transform="translate(-625.463 -1020.654)" fill="#35a8e0"/><path d="M663.625,1059.733l19.962.1.152-.564-19.991.009Z" transform="translate(-548.858 -1020.684)" fill="#35a8e0"/><path d="M754.862,1059.924l6.567.032.193-.717-7.133,0Z" transform="translate(-598.314 -1020.668)" fill="#35a8e0"/><path d="M860.985,1025.2l-.22.823,9.257.041.236-.877Z" transform="translate(-656.159 -1002.131)" fill="#35a8e0"/><path d="M742.938,1025.343l-12.983.016-.14.516,13.313.051A3.257,3.257,0,0,0,742.938,1025.343Z" transform="translate(-584.884 -1002.219)" fill="#35a8e0"/><path d="M772.259,1025.936l3,.011.17-.631-3.23,0C772.228,1025.523,772.247,1025.728,772.259,1025.936Z" transform="translate(-607.956 -1002.204)" fill="#35a8e0"/><path d="M712.666,1025.875l1.761.007.131-.485-1.954,0C712.628,1025.555,712.65,1025.714,712.666,1025.875Z" transform="translate(-575.516 -1002.248)" fill="#35a8e0"/><path d="M792.074,1025.955l3.855.015.184-.682-3.861,0Z" transform="translate(-618.771 -1002.189)" fill="#35a8e0"/><path d="M585.923,1025.54c-.014.073-.023.146-.032.219l-14.055-.055-.145-.146Z" transform="translate(-498.819 -1002.326)" fill="#35a8e0"/><path d="M650.47,1025.8l4.146.016.094-.351-3.662.005A2.9,2.9,0,0,1,650.47,1025.8Z" transform="translate(-541.697 -1002.288)" fill="#35a8e0"/><path d="M628.884,1025.49l-12.546.016c-.032.082-.063.165-.088.25l13.214.051A3.284,3.284,0,0,1,628.884,1025.49Z" transform="translate(-523.072 -1002.299)" fill="#35a8e0"/><path d="M684.609,1025.419l-11.781.016-.1.382,12.069.046A3.053,3.053,0,0,0,684.609,1025.419Z" transform="translate(-553.811 -1002.26)" fill="#35a8e0"/><path d="M825.281,1025.982l10.057.039.213-.792-10.642.014Z" transform="translate(-636.643 -1002.156)" fill="#35a8e0"/><path d="M644.842,1048.277l3.85.018.088-.326h-4.129C644.718,1048.072,644.783,1048.174,644.842,1048.277Z" transform="translate(-538.53 -1014.534)" fill="#35a8e0"/><path d="M814.073,1047.993h-6.428l-.173.646,6.943.033Z" transform="translate(-627.152 -1014.547)" fill="#35a8e0"/><path d="M854.713,1048.743l9.237.05.214-.793h-9.252Z" transform="translate(-652.865 -1014.55)" fill="#35a8e0"/><path d="M702.679,1048.4l3.583.017.12-.444h-3.131Q702.973,1048.2,702.679,1048.4Z" transform="translate(-570.114 -1014.538)" fill="#35a8e0"/><path d="M758.225,1048.529l6.659.031.155-.574h-5.752C758.949,1048.178,758.594,1048.359,758.225,1048.529Z" transform="translate(-600.347 -1014.543)" fill="#35a8e0"/><path d="M836.676,1048.7l2.1.01.193-.718h-2.649Z" transform="translate(-642.854 -1014.549)" fill="#35a8e0"/><path d="M786.028,1048.59l3.841.018.167-.619h-3.846Z" transform="translate(-615.48 -1014.545)" fill="#35a8e0"/><path d="M711.445,1036.872l.982.005.164-.607h-.952Q711.551,1036.575,711.445,1036.872Z" transform="translate(-574.886 -1008.166)" fill="#35a8e0"/><path d="M813.023,1036.238h-2.288l-.226.844,2.948.015Z" transform="translate(-628.805 -1008.149)" fill="#35a8e0"/><path d="M726.964,1036.261l-.173.639,12.329.063a6.055,6.055,0,0,0,.928-.705Z" transform="translate(-583.238 -1008.159)" fill="#35a8e0"/><path d="M682.524,1036.275l-12.618,0-.133.5,12.326.062A5.093,5.093,0,0,0,682.524,1036.275Z" transform="translate(-552.204 -1008.169)" fill="#35a8e0"/><path d="M770.134,1037l2.624.013.205-.759h-2.5C770.364,1036.5,770.252,1036.751,770.134,1037Z" transform="translate(-606.829 -1008.156)" fill="#35a8e0"/><path d="M789.064,1037.036l3.847.019.219-.812h-3.854Z" transform="translate(-617.133 -1008.152)" fill="#35a8e0"/><path d="M830.866,1037.125l6.084.031.25-.927-6.783,0Z" transform="translate(-639.641 -1008.144)" fill="#35a8e0"/><path d="M627.3,1036.691l12.806.065.126-.468-13.922,0C626.621,1036.421,626.947,1036.553,627.3,1036.691Z" transform="translate(-528.547 -1008.176)" fill="#35a8e0"/><path d="M857.738,1037.179l9.245.053.273-1.016-9.262,0Z" transform="translate(-654.511 -1008.138)" fill="#35a8e0"/><path d="M453.825,997.846a15.984,15.984,0,0,0-4.594-13.553,16.32,16.32,0,0,0-22.931,0,15.892,15.892,0,0,0-4.694,10.144,30.658,30.658,0,0,0-9.825-6.471A30.133,30.133,0,0,1,463.641,991a21.889,21.889,0,0,1,3.9-.369,24.641,24.641,0,0,1,17.1,7.182Z" transform="translate(-411.781 -974.6)" fill="#35a8e0"/></g><path d="M529.55,1036.65l12.646.064v5.09H531.861Z" transform="translate(-111.606 -33.773)" fill="#35a8e0"/><path d="M520.62,1054.314h-9.889l4.944-11.375Z" transform="translate(-101.363 -37.197)" fill="#35a8e0"/><g transform="translate(324.502 988.54)"><path d="M596.746,1087.639a.386.386,0,0,0-.374-.265h-.027a.393.393,0,0,0-.379.263l-1.922,4.2A.356.356,0,0,0,594,1092a.289.289,0,0,0,.289.289.311.311,0,0,0,.3-.209l.483-1.076h2.54l.482,1.062a.333.333,0,0,0,.3.223.3.3,0,0,0,.3-.3.4.4,0,0,0-.038-.154Zm-1.42,2.788,1.019-2.268,1.02,2.268Z" transform="translate(-471.19 -1049.922)" fill="#174e80"/><path d="M606.837,1087.735V1092a.313.313,0,1,0,.625,0v-4.264a.313.313,0,1,0-.625,0Z" transform="translate(-478.174 -1049.946)" fill="#174e80"/><path d="M616.666,1087.419a.316.316,0,0,0-.309.316V1092a.313.313,0,1,0,.625,0v-4.264A.317.317,0,0,0,616.666,1087.419Z" transform="translate(-483.356 -1049.946)" fill="#174e80"/><path d="M624.74,1087.419a.31.31,0,0,0-.309.309v3.442l-2.8-3.565a.375.375,0,0,0-.306-.173h-.074a.314.314,0,0,0-.309.309v4.264a.306.306,0,1,0,.612,0v-3.537l2.858,3.654a.412.412,0,0,0,.312.178h.027a.287.287,0,0,0,.289-.3v-4.277A.31.31,0,0,0,624.74,1087.419Z" transform="translate(-485.853 -1049.946)" fill="#174e80"/><path d="M640.885,1090.923v-.014c0-.729-.472-1.143-1.579-1.385-1.057-.226-1.25-.472-1.25-.876v-.013c0-.424.4-.72.963-.72a1.927,1.927,0,0,1,1.2.4.293.293,0,0,0,.182.056.3.3,0,0,0,.3-.3.321.321,0,0,0-.134-.253,2.473,2.473,0,0,0-1.536-.475,1.438,1.438,0,0,0-1.6,1.338v.014c0,.878.65,1.2,1.626,1.411,1.005.212,1.2.464,1.2.856v.013c0,.448-.415.76-1.01.76a2.1,2.1,0,0,1-1.464-.549.282.282,0,0,0-.195-.074.3.3,0,0,0-.3.309.286.286,0,0,0,.12.24,2.827,2.827,0,0,0,1.82.645A1.475,1.475,0,0,0,640.885,1090.923Z" transform="translate(-494.745 -1049.906)" fill="#174e80"/><path d="M651.005,1088.071a.289.289,0,1,0,0-.578h-2.944a.317.317,0,0,0-.309.316v4.2a.317.317,0,0,0,.309.316h2.978a.289.289,0,1,0,0-.577h-2.662v-1.568H650.7a.29.29,0,0,0,.289-.289.293.293,0,0,0-.289-.288h-2.324v-1.527Z" transform="translate(-500.444 -1049.987)" fill="#174e80"/><path d="M661.625,1091.071a.288.288,0,0,0-.2.086,1.9,1.9,0,0,1-1.378.564,1.833,1.833,0,0,1-1.789-1.911v-.014a1.8,1.8,0,0,1,1.789-1.9,1.9,1.9,0,0,1,1.336.534.362.362,0,0,0,.2.069.321.321,0,0,0,.316-.309.342.342,0,0,0-.125-.252,2.5,2.5,0,0,0-1.721-.626,2.443,2.443,0,0,0-2.442,2.495v.014a2.4,2.4,0,0,0,2.421,2.481,2.458,2.458,0,0,0,1.789-.708.3.3,0,0,0,.1-.224A.31.31,0,0,0,661.625,1091.071Z" transform="translate(-505.811 -1049.89)" fill="#174e80"/><path d="M672.969,1087.419a.316.316,0,0,0-.316.316v2.518c0,.965-.5,1.518-1.383,1.518s-1.4-.566-1.4-1.552v-2.484a.313.313,0,1,0-.626,0v2.518a1.893,1.893,0,0,0,2.015,2.1,1.915,1.915,0,0,0,2.022-2.143v-2.477A.317.317,0,0,0,672.969,1087.419Z" transform="translate(-512.141 -1049.946)" fill="#174e80"/><path d="M684.889,1088.96v-.014a1.352,1.352,0,0,0-.379-.966,1.923,1.923,0,0,0-1.379-.487h-1.773a.317.317,0,0,0-.309.316v4.23a.313.313,0,1,0,.626,0v-1.558h1.292l1.319,1.714a.353.353,0,0,0,.287.16.308.308,0,0,0,.218-.533l-1.132-1.459A1.4,1.4,0,0,0,684.889,1088.96Zm-.633.02c0,.565-.46.93-1.172.93h-1.41v-1.832h1.416c.73,0,1.166.333,1.166.889Z" transform="translate(-518.567 -1049.987)" fill="#174e80"/><path d="M695.734,1092.032a.289.289,0,0,0-.289-.288h-2.662v-1.568h2.323a.289.289,0,0,0,.289-.289.293.293,0,0,0-.289-.288h-2.323v-1.527h2.628a.289.289,0,1,0,0-.578h-2.944a.317.317,0,0,0-.309.316v4.2a.317.317,0,0,0,.309.316h2.978A.289.289,0,0,0,695.734,1092.032Z" transform="translate(-524.614 -1049.987)" fill="#174e80"/><path d="M707.932,1092.039v-1.389h1.106c1.317,0,1.906-.8,1.906-1.595v-.013c0-.941-.714-1.548-1.819-1.548h-1.509a.316.316,0,0,0-.309.316v4.23a.313.313,0,1,0,.625,0Zm0-3.961h1.153c.78,0,1.227.359,1.227.983v.014c0,.6-.5,1-1.254,1h-1.126Z" transform="translate(-532.859 -1049.987)" fill="#174e80"/><path d="M720.836,1092.195a.353.353,0,0,0,.287.16.325.325,0,0,0,.316-.309.33.33,0,0,0-.1-.224l-1.134-1.459a1.4,1.4,0,0,0,1.231-1.4v-.014a1.352,1.352,0,0,0-.379-.966,1.923,1.923,0,0,0-1.379-.487h-1.773a.316.316,0,0,0-.309.316v4.23a.313.313,0,1,0,.625,0v-1.558h1.293Zm-2.612-4.117h1.416c.731,0,1.167.333,1.167.889v.013c0,.565-.46.93-1.173.93h-1.41Z" transform="translate(-538.461 -1049.987)" fill="#174e80"/><path d="M728.812,1087.735V1092a.313.313,0,1,0,.625,0v-4.264a.313.313,0,1,0-.625,0Z" transform="translate(-544.564 -1049.946)" fill="#174e80"/><path d="M736.813,1087.419a.359.359,0,0,0-.306.217l-1.6,3.839-1.6-3.826a.342.342,0,0,0-.32-.231.32.32,0,0,0-.316.309.291.291,0,0,0,.031.14l1.827,4.216a.368.368,0,0,0,.353.251h.027a.373.373,0,0,0,.353-.25l1.834-4.238a.318.318,0,0,0,.024-.125A.31.31,0,0,0,736.813,1087.419Z" transform="translate(-546.666 -1049.946)" fill="#174e80"/><path d="M743.329,1092.081l.482-1.076h2.541l.482,1.062a.334.334,0,0,0,.305.223.3.3,0,0,0,.3-.3.393.393,0,0,0-.038-.154l-1.921-4.195a.385.385,0,0,0-.373-.265h-.027a.393.393,0,0,0-.379.263l-1.922,4.2a.363.363,0,0,0-.038.161.289.289,0,0,0,.289.289A.312.312,0,0,0,743.329,1092.081Zm1.752-3.922,1.02,2.268h-2.039Z" transform="translate(-552.146 -1049.922)" fill="#174e80"/><path d="M758.789,1091.373a.311.311,0,0,0-.3-.3.288.288,0,0,0-.2.086,1.9,1.9,0,0,1-1.377.564,1.833,1.833,0,0,1-1.789-1.911v-.014a1.8,1.8,0,0,1,1.789-1.9,1.9,1.9,0,0,1,1.335.534.363.363,0,0,0,.2.069.321.321,0,0,0,.316-.309.344.344,0,0,0-.124-.252,2.5,2.5,0,0,0-1.721-.626,2.442,2.442,0,0,0-2.441,2.495v.014a2.4,2.4,0,0,0,2.421,2.481,2.458,2.458,0,0,0,1.789-.708A.3.3,0,0,0,758.789,1091.373Z" transform="translate(-558.532 -1049.89)" fill="#174e80"/><path d="M769.611,1087.728a.31.31,0,0,0-.309-.309.348.348,0,0,0-.288.182l-1.54,2.2-1.526-2.2a.359.359,0,0,0-.294-.181.321.321,0,0,0-.323.309.391.391,0,0,0,.07.209l1.75,2.451V1092a.316.316,0,0,0,.633,0v-1.623l1.746-2.427A.45.45,0,0,0,769.611,1087.728Z" transform="translate(-564.441 -1049.946)" fill="#174e80"/><path d="M775.569,1092.825a.32.32,0,0,0-.316.316.323.323,0,0,0,.316.323h1.408a.324.324,0,0,0,.316-.323.32.32,0,0,0-.316-.316Z" transform="translate(-569.842 -1052.889)" fill="#174e80"/><path d="M785.9,1089.054v-.013c0-.941-.714-1.548-1.818-1.548h-1.509a.316.316,0,0,0-.309.316v4.23a.313.313,0,1,0,.625,0v-1.389h1.105C785.31,1090.649,785.9,1089.848,785.9,1089.054Zm-3.011-.977h1.152c.78,0,1.227.359,1.227.983v.014c0,.6-.5,1-1.254,1h-1.126Z" transform="translate(-573.657 -1049.987)" fill="#174e80"/><path d="M794.637,1087.493h-1.773a.316.316,0,0,0-.309.316v4.23a.313.313,0,1,0,.625,0v-1.558h1.293l1.319,1.714a.352.352,0,0,0,.286.16.308.308,0,0,0,.219-.533l-1.133-1.459a1.4,1.4,0,0,0,1.231-1.4v-.014a1.352,1.352,0,0,0-.379-.966A1.925,1.925,0,0,0,794.637,1087.493Zm1.126,1.486c0,.565-.46.93-1.172.93h-1.41v-1.832H794.6c.731,0,1.166.333,1.166.889Z" transform="translate(-579.259 -1049.987)" fill="#174e80"/><path d="M806.951,1091.743h-2.662v-1.568h2.323a.289.289,0,0,0,.289-.289.293.293,0,0,0-.289-.288h-2.323v-1.527h2.628a.289.289,0,1,0,0-.578h-2.944a.317.317,0,0,0-.31.316v4.2a.317.317,0,0,0,.31.316h2.978a.289.289,0,1,0,0-.577Z" transform="translate(-585.305 -1049.987)" fill="#174e80"/><path d="M815.416,1089.525c-1.057-.226-1.25-.473-1.25-.876v-.013c0-.424.4-.72.963-.72a1.927,1.927,0,0,1,1.2.4.292.292,0,0,0,.182.056.3.3,0,0,0,.3-.3.322.322,0,0,0-.134-.253,2.471,2.471,0,0,0-1.535-.475,1.438,1.438,0,0,0-1.6,1.338v.014c0,.878.65,1.2,1.626,1.411,1.005.212,1.2.464,1.2.856v.013c0,.448-.416.76-1.01.76a2.1,2.1,0,0,1-1.464-.549.283.283,0,0,0-.195-.074.3.3,0,0,0-.3.309.286.286,0,0,0,.12.24,2.829,2.829,0,0,0,1.821.645,1.475,1.475,0,0,0,1.663-1.385v-.014C817,1090.18,816.523,1089.766,815.416,1089.525Z" transform="translate(-590.6 -1049.906)" fill="#174e80"/><path d="M827.148,1091.743h-2.662v-1.568h2.323a.289.289,0,0,0,.289-.289.293.293,0,0,0-.289-.288h-2.323v-1.527h2.628a.289.289,0,1,0,0-.578H824.17a.317.317,0,0,0-.309.316v4.2a.317.317,0,0,0,.309.316h2.978a.289.289,0,1,0,0-.577Z" transform="translate(-596.299 -1049.987)" fill="#174e80"/><path d="M836.266,1087.493h-1.773a.316.316,0,0,0-.309.316v4.23a.313.313,0,1,0,.625,0v-1.558H836.1l1.319,1.714a.352.352,0,0,0,.286.16.308.308,0,0,0,.219-.533l-1.133-1.459a1.4,1.4,0,0,0,1.231-1.4v-.014a1.35,1.35,0,0,0-.379-.966A1.922,1.922,0,0,0,836.266,1087.493Zm1.126,1.486c0,.565-.46.93-1.173.93h-1.41v-1.832h1.416c.731,0,1.166.333,1.166.889Z" transform="translate(-601.917 -1049.987)" fill="#174e80"/><path d="M848.453,1087.419a.361.361,0,0,0-.306.217l-1.6,3.838-1.6-3.825a.341.341,0,0,0-.319-.231.32.32,0,0,0-.316.309.288.288,0,0,0,.031.14l1.827,4.216a.366.366,0,0,0,.353.251h.027a.371.371,0,0,0,.352-.25l1.835-4.239a.327.327,0,0,0,.023-.125A.306.306,0,0,0,848.453,1087.419Z" transform="translate(-607.43 -1049.946)" fill="#174e80"/><path d="M856.874,1087.419a.316.316,0,0,0-.309.316V1092a.313.313,0,1,0,.625,0v-4.264A.317.317,0,0,0,856.874,1087.419Z" transform="translate(-614.099 -1049.946)" fill="#174e80"/><path d="M864.948,1087.419a.31.31,0,0,0-.309.309v3.442l-2.8-3.565a.375.375,0,0,0-.307-.173h-.074a.314.314,0,0,0-.309.309v4.264a.306.306,0,1,0,.612,0v-3.537l2.858,3.654a.412.412,0,0,0,.312.178h.027a.286.286,0,0,0,.289-.3v-4.277A.31.31,0,0,0,864.948,1087.419Z" transform="translate(-616.596 -1049.946)" fill="#174e80"/><path d="M876.89,1089.6h-1.523a.285.285,0,0,0,0,.571h1.227v1.111a2.187,2.187,0,0,1-1.321.45,1.778,1.778,0,0,1-1.83-1.924v-.014a1.811,1.811,0,0,1,1.755-1.9,1.963,1.963,0,0,1,1.286.424.323.323,0,0,0,.2.077.316.316,0,0,0,.309-.316.313.313,0,0,0-.127-.253,2.576,2.576,0,0,0-1.644-.516,2.433,2.433,0,0,0-2.421,2.495v.014a2.361,2.361,0,0,0,2.455,2.481,2.947,2.947,0,0,0,1.744-.582.429.429,0,0,0,.2-.363v-1.441A.316.316,0,0,0,876.89,1089.6Z" transform="translate(-622.934 -1049.89)" fill="#174e80"/><path d="M598.269,1108.066a.289.289,0,0,0-.2.087,1.9,1.9,0,0,1-1.377.563,1.833,1.833,0,0,1-1.789-1.911v-.014a1.8,1.8,0,0,1,1.789-1.9,1.9,1.9,0,0,1,1.335.534.36.36,0,0,0,.2.068.32.32,0,0,0,.316-.309.34.34,0,0,0-.125-.251,2.5,2.5,0,0,0-1.721-.627,2.442,2.442,0,0,0-2.441,2.5v.013a2.4,2.4,0,0,0,2.421,2.482,2.456,2.456,0,0,0,1.789-.708.3.3,0,0,0,.1-.224A.311.311,0,0,0,598.269,1108.066Z" transform="translate(-471.328 -1059.14)" fill="#174e80"/><path d="M607.761,1104.31a2.456,2.456,0,0,0-2.469,2.5v.013a2.415,2.415,0,0,0,2.455,2.482,2.455,2.455,0,0,0,2.468-2.495v-.014A2.414,2.414,0,0,0,607.761,1104.31Zm1.809,2.509a1.814,1.814,0,0,1-1.809,1.9,1.849,1.849,0,0,1-1.823-1.911v-.014a1.814,1.814,0,0,1,1.809-1.9,1.848,1.848,0,0,1,1.823,1.911Z" transform="translate(-477.333 -1059.14)" fill="#174e80"/><path d="M623.064,1104.444H623a.33.33,0,0,0-.288.162l-1.654,2.488-1.654-2.488a.336.336,0,0,0-.288-.163h-.061a.313.313,0,0,0-.309.309v4.264a.3.3,0,0,0,.3.309.306.306,0,0,0,.31-.309v-3.386l1.427,2.1a.318.318,0,0,0,.267.155.306.306,0,0,0,.261-.155l1.433-2.1v3.386a.313.313,0,1,0,.626,0v-4.257A.314.314,0,0,0,623.064,1104.444Z" transform="translate(-484.657 -1059.213)" fill="#174e80"/><path d="M633.829,1104.489H632.32a.316.316,0,0,0-.309.316v4.23a.313.313,0,1,0,.625,0v-1.39h1.105c1.317,0,1.906-.8,1.906-1.595v-.013C635.648,1105.1,634.934,1104.489,633.829,1104.489Zm1.187,1.581c0,.6-.5,1-1.254,1h-1.126v-1.994h1.152c.78,0,1.227.358,1.227.983Z" transform="translate(-491.876 -1059.238)" fill="#174e80"/><path d="M645.867,1104.414a.317.317,0,0,0-.317.316v2.517c0,.965-.5,1.518-1.383,1.518s-1.4-.566-1.4-1.552v-2.484a.313.313,0,1,0-.625,0v2.517a1.893,1.893,0,0,0,2.015,2.1,1.916,1.916,0,0,0,2.022-2.143v-2.477A.317.317,0,0,0,645.867,1104.414Z" transform="translate(-497.389 -1059.197)" fill="#174e80"/><path d="M656.714,1104.489h-3.289a.3.3,0,0,0-.3.3.293.293,0,0,0,.3.289h1.329v3.961a.316.316,0,0,0,.632,0v-3.961h1.328a.293.293,0,0,0,.3-.289A.3.3,0,0,0,656.714,1104.489Z" transform="translate(-503.371 -1059.238)" fill="#174e80"/><path d="M664.354,1104.414a.317.317,0,0,0-.309.316v4.264a.313.313,0,1,0,.625,0v-4.264A.316.316,0,0,0,664.354,1104.414Z" transform="translate(-509.312 -1059.197)" fill="#174e80"/><path d="M672.429,1104.414a.31.31,0,0,0-.309.31v3.442l-2.795-3.565a.372.372,0,0,0-.307-.173h-.074a.313.313,0,0,0-.309.309V1109a.306.306,0,1,0,.612,0v-3.537l2.857,3.654a.41.41,0,0,0,.312.178h.027a.286.286,0,0,0,.289-.3v-4.277A.307.307,0,0,0,672.429,1104.414Z" transform="translate(-511.81 -1059.197)" fill="#174e80"/><path d="M684.37,1106.6h-1.523a.286.286,0,0,0,0,.571h1.227v1.111a2.185,2.185,0,0,1-1.322.45,1.778,1.778,0,0,1-1.829-1.924v-.014a1.81,1.81,0,0,1,1.754-1.9,1.962,1.962,0,0,1,1.286.424.334.334,0,0,0,.2.077.316.316,0,0,0,.182-.569,2.578,2.578,0,0,0-1.644-.516,2.433,2.433,0,0,0-2.421,2.5v.013a2.361,2.361,0,0,0,2.454,2.482,2.94,2.94,0,0,0,1.744-.583.428.428,0,0,0,.2-.362v-1.442A.317.317,0,0,0,684.37,1106.6Z" transform="translate(-518.148 -1059.14)" fill="#174e80"/><path d="M701.13,1108.066a.288.288,0,0,0-.2.087,1.9,1.9,0,0,1-1.377.563,1.833,1.833,0,0,1-1.789-1.911v-.014a1.8,1.8,0,0,1,1.789-1.9,1.9,1.9,0,0,1,1.335.534.358.358,0,0,0,.2.068.321.321,0,0,0,.317-.309.339.339,0,0,0-.125-.251,2.493,2.493,0,0,0-1.721-.627,2.443,2.443,0,0,0-2.441,2.5v.013a2.4,2.4,0,0,0,2.421,2.482,2.457,2.457,0,0,0,1.789-.708.3.3,0,0,0,.1-.224A.31.31,0,0,0,701.13,1108.066Z" transform="translate(-527.314 -1059.14)" fill="#174e80"/><path d="M710.622,1104.31a2.456,2.456,0,0,0-2.469,2.5v.013a2.415,2.415,0,0,0,2.455,2.482,2.455,2.455,0,0,0,2.468-2.495v-.014A2.414,2.414,0,0,0,710.622,1104.31Zm1.809,2.509a1.814,1.814,0,0,1-1.809,1.9,1.849,1.849,0,0,1-1.823-1.911v-.014a1.814,1.814,0,0,1,1.809-1.9,1.848,1.848,0,0,1,1.823,1.911Z" transform="translate(-533.32 -1059.14)" fill="#174e80"/><path d="M725.4,1104.414a.31.31,0,0,0-.309.31v3.442l-2.8-3.565a.371.371,0,0,0-.306-.173h-.075a.313.313,0,0,0-.309.309V1109a.306.306,0,0,0,.3.309.309.309,0,0,0,.309-.309v-3.537l2.857,3.655a.413.413,0,0,0,.312.178h.027a.286.286,0,0,0,.289-.3v-4.277A.311.311,0,0,0,725.4,1104.414Z" transform="translate(-540.644 -1059.197)" fill="#174e80"/><path d="M736.482,1104.489h-3.289a.3.3,0,0,0-.3.3.292.292,0,0,0,.3.289h1.328v3.961a.316.316,0,0,0,.633,0v-3.961h1.328a.293.293,0,0,0,.3-.289A.3.3,0,0,0,736.482,1104.489Z" transform="translate(-546.788 -1059.238)" fill="#174e80"/><path d="M744.122,1104.414a.317.317,0,0,0-.309.316v4.264a.313.313,0,1,0,.625,0v-4.264A.317.317,0,0,0,744.122,1104.414Z" transform="translate(-552.729 -1059.197)" fill="#174e80"/><path d="M752.2,1104.414a.31.31,0,0,0-.309.31v3.442l-2.8-3.565a.371.371,0,0,0-.306-.173h-.074a.313.313,0,0,0-.309.309V1109a.306.306,0,0,0,.3.309.309.309,0,0,0,.309-.309v-3.537l2.858,3.654a.412.412,0,0,0,.312.178h.027a.286.286,0,0,0,.289-.3v-4.277A.311.311,0,0,0,752.2,1104.414Z" transform="translate(-555.227 -1059.197)" fill="#174e80"/><path d="M764.069,1104.414a.317.317,0,0,0-.316.316v2.517c0,.965-.5,1.518-1.383,1.518s-1.4-.566-1.4-1.552v-2.484a.313.313,0,1,0-.626,0v2.517a1.893,1.893,0,0,0,2.015,2.1,1.915,1.915,0,0,0,2.021-2.143v-2.477A.317.317,0,0,0,764.069,1104.414Z" transform="translate(-561.726 -1059.197)" fill="#174e80"/><path d="M775.713,1104.414a.316.316,0,0,0-.316.316v2.517c0,.965-.5,1.518-1.383,1.518s-1.4-.566-1.4-1.552v-2.484a.313.313,0,1,0-.625,0v2.517a1.893,1.893,0,0,0,2.014,2.1,1.916,1.916,0,0,0,2.022-2.143v-2.477A.317.317,0,0,0,775.713,1104.414Z" transform="translate(-568.064 -1059.197)" fill="#174e80"/><path d="M788.108,1104.444h-.061a.333.333,0,0,0-.288.162l-1.655,2.488-1.654-2.488a.338.338,0,0,0-.288-.162H784.1a.313.313,0,0,0-.309.309v4.264a.3.3,0,0,0,.3.309.306.306,0,0,0,.309-.309v-3.386l1.427,2.1a.318.318,0,0,0,.267.155.306.306,0,0,0,.261-.155l1.434-2.1v3.386a.313.313,0,1,0,.625,0v-4.257A.313.313,0,0,0,788.108,1104.444Z" transform="translate(-574.489 -1059.213)" fill="#174e80"/><path d="M605.022,1040.172c6.737,0,11.817-4.119,11.817-9.581,0-4.412-3.216-6.549-8.041-8.4-4.754-1.859-6.129-2.945-6.129-4.844,0-2.953,3.32-4.547,6.444-4.547a9.672,9.672,0,0,1,7.106,2.774c.016.015.032.029.05.043a2.485,2.485,0,0,0,1.574.557,2.24,2.24,0,0,0,2.285-2.243,2.3,2.3,0,0,0-.979-1.874,14.374,14.374,0,0,0-9.741-3.532c-6.676,0-11.521,3.87-11.521,9.2,0,4.283,3.117,6.353,8.505,8.483,4.789,1.863,5.664,3.078,5.664,4.8,0,2.83-2.87,4.885-6.824,4.885a10.654,10.654,0,0,1-8.589-3.665,2.285,2.285,0,0,0-1.744-.805,2.217,2.217,0,0,0-2.2,2.327,2.642,2.642,0,0,0,.8,1.827A15.223,15.223,0,0,0,605.022,1040.172Z" transform="translate(-470.48 -1007.006)" fill="#174e80"/><path d="M677.3,1018.316a8.215,8.215,0,0,0-2.3-5.94c-1.984-1.94-4.972-2.924-8.882-2.924h-7.8a2.669,2.669,0,0,0-2.516,2.161l-7,25.985a2.381,2.381,0,0,0,.317,2.094,2.08,2.08,0,0,0,1.695.773,2.579,2.579,0,0,0,2.47-2.063l0-.014,2.318-8.635h6.509C671.475,1029.752,677.3,1025.37,677.3,1018.316Zm-15.021,7.2h-5.535l3.117-11.709h6.129c2.482,0,4.3.562,5.409,1.668a4.033,4.033,0,0,1,1.163,3.047C672.557,1023.037,668.905,1025.52,662.274,1025.52Z" transform="translate(-500.954 -1007.51)" fill="#174e80"/><path d="M707.9,1040.465a2.579,2.579,0,0,0,2.47-2.064l0-.014,2.572-9.6h7.139l5.511,10.246a2.627,2.627,0,0,0,2.336,1.436,2.248,2.248,0,0,0,2.327-2.2,3.018,3.018,0,0,0-.5-1.53l-4.628-8.445a14.066,14.066,0,0,0,7.561-3.537,9.644,9.644,0,0,0,2.8-6.857,7.8,7.8,0,0,0-2.133-5.561c-1.957-1.912-4.9-2.882-8.755-2.882H715.4a2.669,2.669,0,0,0-2.515,2.161l-7,25.985a2.382,2.382,0,0,0,.317,2.094A2.082,2.082,0,0,0,707.9,1040.465Zm9.093-26.654h7.439c2.482,0,4.274.533,5.325,1.584a3.84,3.84,0,0,1,1.035,2.752,5.328,5.328,0,0,1-1.584,3.849c-1.62,1.62-4.44,2.511-7.94,2.511h-7.176Z" transform="translate(-532.03 -1007.51)" fill="#174e80"/><path d="M768.574,1039.44a2.079,2.079,0,0,0,1.694.773,2.579,2.579,0,0,0,2.47-2.064l0-.013,7.044-26.28a2.38,2.38,0,0,0-.318-2.094,2.078,2.078,0,0,0-1.694-.773,2.512,2.512,0,0,0-2.432,2.076l-7.087,26.28A2.381,2.381,0,0,0,768.574,1039.44Z" transform="translate(-565.978 -1007.258)" fill="#174e80"/><path d="M813.468,1040.129h.084a2.33,2.33,0,0,0,2.305-1.951l7.039-26.3a2.364,2.364,0,0,0-.257-2.118,2.016,2.016,0,0,0-1.666-.768,2.516,2.516,0,0,0-2.433,2.082l-5.634,20.934-10.6-21.112a2.921,2.921,0,0,0-2.634-1.82h-.169a2.574,2.574,0,0,0-2.558,2.119l-7.044,26.154a2.4,2.4,0,0,0,.309,2.112,2.036,2.036,0,0,0,1.66.755,2.533,2.533,0,0,0,2.432-2.077l5.765-21.491,11,21.81A2.537,2.537,0,0,0,813.468,1040.129Z" transform="translate(-577.759 -1007.258)" fill="#174e80"/><path d="M889.357,1009.452H868.9a2.23,2.23,0,0,0-2.2,2.2,2.182,2.182,0,0,0,2.2,2.158h7.3L869.8,1037.6a2.38,2.38,0,0,0,.317,2.094,2.082,2.082,0,0,0,1.694.773,2.579,2.579,0,0,0,2.47-2.064l0-.014,6.579-24.576h8.491a2.182,2.182,0,0,0,2.2-2.158A2.23,2.23,0,0,0,889.357,1009.452Z" transform="translate(-619.617 -1007.51)" fill="#174e80"/><path d="M361.249,1051.632a3.4,3.4,0,0,1,.031-6.8,1.678,1.678,0,1,0,.016-3.356,6.744,6.744,0,0,0-5.875,10.13l-11.192-.052c-.058,0-.113.011-.169.016a1.592,1.592,0,0,0-.169-.018,16.107,16.107,0,1,1,.148-32.213,15.964,15.964,0,0,1,9.648,3.263,1.678,1.678,0,1,0,2.028-2.674,19.268,19.268,0,0,0-10.241-3.886,10.9,10.9,0,0,1,13.071-7.143,11.038,11.038,0,0,1,1.557.534,16.032,16.032,0,0,0-1.462,2.552,1.678,1.678,0,0,0,3.053,1.394l3.755-4.736-3.043-1.827a14.313,14.313,0,0,0-3.019-1.165,14.248,14.248,0,0,0-17.362,10.228c-.018.068-.031.139-.048.207a19.573,19.573,0,0,0,1.9,39.032c.058,0,.113.005.169,0s.111,0,.169,0h61.044c.032,0,.063,0,.1,0h.257a51.705,51.705,0,0,1-5.028-3.383Z" transform="translate(-324.502 -1005.19)" fill="#174e80"/><path d="M414.549,1031.677a1.993,1.993,0,0,0,2.568-1.162c.562-1.492,3.719-5.562,5.242-5.783a36.24,36.24,0,0,0-3-3.2c-1.859.9-5.2,5.532-5.973,7.574A1.993,1.993,0,0,0,414.549,1031.677Z" transform="translate(-372.811 -1014.086)" fill="#174e80"/><path d="M453.906,1090.61a1.993,1.993,0,0,0,2.714-.761c.781-1.39,4.516-4.937,6.055-4.927a36.149,36.149,0,0,0-2.483-3.612c-1.974.612-5.978,4.685-7.046,6.587A1.993,1.993,0,0,0,453.906,1090.61Z" transform="translate(-394.382 -1046.621)" fill="#174e80"/><path d="M394.04,1052.6a9.976,9.976,0,0,0-10.97,8.846,1.756,1.756,0,0,0,3.492.374,6.454,6.454,0,0,1,12.317-1.926,1.756,1.756,0,1,0,3.209-1.426A10,10,0,0,0,394.04,1052.6Z" transform="translate(-356.375 -1030.961)" fill="#174e80"/><path d="M432.353,1047.414a8.075,8.075,0,0,1-2.829,15.339,1.756,1.756,0,1,0,.283,3.5,11.587,11.587,0,0,0,4.056-22.011,1.756,1.756,0,0,0-1.509,3.171Z" transform="translate(-380.785 -1026.353)" fill="#174e80"/><path d="M357.941,1052.37a1.756,1.756,0,0,0,.016-3.512,9.457,9.457,0,0,0-.087,18.913,1.756,1.756,0,0,0,.016-3.512,5.945,5.945,0,1,1,.055-11.889Z" transform="translate(-337.54 -1028.958)" fill="#174e80"/></g></g></svg>